<svg width="434" height="422" viewBox="0 0 434 422" fill="none" xmlns="http://www.w3.org/2000/svg">
<path d="M297.151 200.057H356.517V106.89L297.151 106.89V200.057Z" fill="white"/>
<path d="M281.935 150.648H294.168V143.664H281.935V150.648Z" fill="#DBDBDB"/>
<path d="M52.3261 259.91C52.7126 265.612 51.9623 271.332 50.1171 276.753C49.2524 279.265 48.1679 281.7 46.8757 284.03C45.255 287.057 43.5828 289.933 43.655 293.344C43.975 293.586 42.8292 293.465 42.8189 293.132C33.9723 287.289 22.1733 285.452 15.7216 276.491C12.6248 272.253 11.3654 267.065 10.9525 261.949C10.5086 256.378 10.7564 250.263 12.6351 244.944C14.2145 240.454 17.3113 236.235 21.9256 234.318C26.5399 232.4 32.6097 232.986 37.2859 234.802C47.3506 238.728 51.6345 250.021 52.3261 259.91Z" fill="#FFC727"/>
<path d="M51.7893 327.232C50.8499 323.024 49.9209 318.816 48.9402 314.617C47.0408 306.383 45.0279 298.168 42.7466 290.034C41.3702 285.163 39.894 280.329 38.3181 275.532C38.7597 272.614 39.3592 269.72 40.1143 266.864C41.1465 263.422 42.5504 260.112 43.8717 256.772C43.9543 256.57 43.6137 256.429 43.5104 256.621C41.0536 261.192 37.8639 267.045 37.3168 272.636C35.469 267.207 33.4664 261.828 31.2676 256.489C31.3141 252.141 31.7946 247.808 32.7025 243.552C32.7031 243.516 32.6914 243.481 32.6692 243.452C32.6469 243.423 32.6155 243.402 32.5799 243.393C32.5443 243.384 32.5066 243.387 32.4727 243.401C32.4388 243.415 32.4107 243.44 32.3928 243.471C31.3086 247.174 30.7018 250.995 30.5863 254.844C28.9037 250.808 27.1076 246.902 25.1669 243.007C24.9914 242.654 24.4959 242.956 24.6404 243.299C27.6031 250.111 30.2973 257.034 32.7954 264.038C28.8179 260.107 24.1135 256.95 18.9319 254.733C18.7048 254.632 18.5087 254.945 18.7358 255.056C24.3552 257.936 29.4004 261.778 33.6316 266.399C35.4071 271.526 37.0862 276.679 38.6691 281.86C33.3322 275.906 25.7037 271.657 18.199 269.124C17.941 269.043 17.8377 269.427 18.0855 269.518C26.7463 272.797 33.2496 278.237 39.5362 284.655C40.1556 286.754 40.7611 288.853 41.353 290.952C43.5758 298.918 45.6817 306.917 47.6705 314.95C48.6202 318.805 49.5493 322.664 50.4577 326.526C51.428 330.683 52.1093 335.043 53.4822 339.08C53.6164 339.473 54.3081 339.433 54.2564 338.979C53.6388 335.025 52.8154 331.104 51.7893 327.232Z" fill="#263238"/>
<path d="M42.3544 251.191C40.5126 253.534 39.162 256.209 38.3801 259.063C38.3801 259.133 38.473 259.194 38.504 259.113C39.7563 256.468 41.1732 253.899 42.7467 251.423C42.9118 251.171 42.5299 250.969 42.3544 251.191Z" fill="#263238"/>
<path d="M24.3513 268.801C21.8884 267.21 19.1494 266.071 16.2685 265.441C16.1963 265.441 16.1343 265.531 16.2685 265.562C17.5589 266.208 18.9318 266.692 20.2428 267.298C21.5538 267.903 22.8338 268.63 24.1655 269.205C24.2156 269.211 24.2663 269.201 24.3102 269.176C24.3541 269.152 24.3889 269.115 24.4097 269.07C24.4304 269.025 24.4359 268.974 24.4254 268.926C24.4149 268.878 24.3889 268.834 24.3513 268.801Z" fill="#263238"/>
<path d="M21.492 245.772C20.7047 245.091 19.8546 244.483 18.9526 243.955C18.9223 243.938 18.8863 243.931 18.8516 243.938C18.8168 243.944 18.7857 243.963 18.764 243.99C18.7424 244.018 18.7318 244.052 18.7342 244.086C18.7366 244.121 18.7519 244.153 18.7771 244.177C19.5504 244.872 20.3865 245.497 21.2752 246.044C21.4404 246.155 21.6572 245.893 21.492 245.772Z" fill="#263238"/>
<path d="M80.9306 277.399C74.1692 279.085 67.3871 280.619 60.6257 282.284C60.0477 282.435 49.601 260.849 54.1121 250.111C58.2412 240.161 67.222 232.956 77.6583 229.928C82.4894 228.525 88.4043 227.415 93.4005 228.697C97.8393 229.837 100.864 233.541 102.154 237.719C103.909 243.39 102.98 250.041 101.679 255.712C100.606 261.047 98.1381 266.019 94.5154 270.143C90.8095 274.12 86.1952 276.098 80.9306 277.399Z" fill="#FFC727"/>
<path d="M91.4082 257.67C87.1067 259.527 82.6607 261.045 78.1125 262.211C75.0816 262.885 72.1151 263.81 69.2452 264.976C72.3421 258.921 75.6557 253.028 79.1757 247.195C83.5423 246.135 88.1565 244.4 91.5631 241.544C91.5937 241.512 91.6116 241.471 91.6137 241.427C91.6157 241.384 91.6017 241.341 91.5741 241.307C91.5466 241.272 91.5074 241.249 91.4637 241.241C91.42 241.232 91.3747 241.239 91.336 241.261C87.6817 243.582 83.6971 244.904 79.6919 246.418C80.6416 244.854 81.6016 243.279 82.5823 241.715C82.8506 241.281 82.2416 240.817 81.9216 241.231C78.2125 246.085 74.8332 251.172 71.8053 256.459C71.277 251.705 71.239 246.911 71.6917 242.149C71.685 242.129 71.6718 242.111 71.6542 242.099C71.6366 242.086 71.6154 242.08 71.5937 242.08C71.5719 242.08 71.5508 242.086 71.5331 242.099C71.5155 242.111 71.5024 242.129 71.4956 242.149C70.454 247.319 70.297 252.622 71.0311 257.842C68.5123 262.322 66.1897 266.924 64.0839 271.597C63.4335 268.721 62.5561 265.875 62.0193 262.978C61.1539 258.828 60.9831 254.568 61.5135 250.364C61.5135 250.243 61.3483 250.222 61.3174 250.364C59.8206 258.126 60.4691 266.139 63.1961 273.575C61.9677 276.38 60.7909 279.206 59.6967 282.042C54.086 296.473 50.4956 311.579 49.0229 326.95C49.0262 327.017 49.0539 327.081 49.1011 327.13C49.1482 327.179 49.2118 327.21 49.2803 327.217C49.3488 327.225 49.4178 327.208 49.4747 327.17C49.5316 327.132 49.5727 327.075 49.5907 327.01C51.9431 311.856 55.8759 296.978 61.3277 282.607C63.4955 276.986 65.942 271.506 68.5536 266.218C72.5485 265.209 76.5331 263.826 80.4661 262.665C84.3853 261.671 88.1125 260.059 91.5011 257.892C91.5155 257.873 91.5246 257.85 91.5275 257.826C91.5304 257.802 91.527 257.778 91.5177 257.756C91.5084 257.734 91.4935 257.714 91.4743 257.699C91.4552 257.684 91.4324 257.674 91.4082 257.67Z" fill="#DBDBDB"/>
<path d="M97.8806 251.766C93.7515 253.028 89.7978 254.865 85.6584 256.156C85.4623 256.217 85.5552 256.51 85.7513 256.479C90.1075 255.773 94.4431 254.632 98.0354 251.999C98.1696 251.898 98.0251 251.716 97.8806 251.766Z" fill="#DBDBDB"/>
<path d="M64.8787 241.877C64.8787 241.665 64.6206 241.533 64.5484 241.745C63.2787 245.389 62.3496 249.264 63.289 253.068C63.289 253.22 63.5677 253.23 63.578 253.068C63.929 249.274 63.8568 245.58 64.8787 241.877Z" fill="#DBDBDB"/>
<path d="M82.097 234.015C80.6976 235.786 79.9681 237.975 80.0325 240.211C80.0325 240.353 80.2596 240.444 80.3009 240.272C80.879 238.183 81.7874 236.296 82.5306 234.278C82.5381 234.225 82.5298 234.172 82.5068 234.124C82.4839 234.076 82.4472 234.036 82.4013 234.008C82.3553 233.981 82.3021 233.966 82.2481 233.968C82.1941 233.969 82.1416 233.985 82.097 234.015Z" fill="#DBDBDB"/>
<path d="M102.195 292.466C100.234 298.521 95.5784 306.948 88.2079 307.018C83.4285 307.018 78.6181 306.504 73.818 306.443C68.6566 306.362 63.4952 306.373 58.4268 306.675C58.0035 306.675 59.0461 291.649 71.3715 284.322C74.8296 282.304 79.0516 281.618 82.9743 280.79C87.4638 279.753 92.0712 279.285 96.6829 279.397C99.5114 279.508 101.844 280.094 102.877 282.93C103.909 285.765 103.135 289.57 102.195 292.466Z" fill="#EBEBEB"/>
<path d="M96.8894 284.857C93.8958 285.604 90.8712 286.472 87.8673 287.41C88.6491 286.577 89.4761 285.785 90.3447 285.039C91.6454 284.03 93.0596 283.152 94.4738 282.233C94.5874 282.152 94.4738 281.93 94.3706 281.991C91.4508 283.176 88.9295 285.137 87.0931 287.652C83.3459 288.833 79.6297 290.135 76.058 291.568C73.5887 292.555 71.2239 293.775 68.9972 295.211C69.7086 293.688 70.5621 292.232 71.547 290.862C73.1883 288.783 75.3974 287.632 77.5445 286.159C77.5778 286.129 77.5997 286.089 77.6063 286.045C77.613 286.002 77.604 285.957 77.581 285.919C77.5579 285.881 77.5222 285.852 77.4798 285.837C77.4375 285.822 77.391 285.822 77.3484 285.836C75.1083 286.789 73.0964 288.189 71.4415 289.946C69.7866 291.702 68.5251 293.778 67.7379 296.039C65.1627 297.83 62.8134 299.914 60.739 302.245C52.5737 311.328 46.153 323.357 46.1323 335.659C46.1323 335.951 46.6072 336.042 46.6691 335.729C48.7659 323.669 54.1426 312.382 62.2358 303.052C62.8277 302.38 63.4264 301.744 64.032 301.145C66.2668 300.849 68.5178 300.684 70.7728 300.651C73.3947 300.651 76.0064 301.034 78.6181 301.236C82.9227 301.579 87.6815 301.629 91.5628 299.51C91.7383 299.419 91.6247 299.127 91.4286 299.197C82.7781 302.275 73.6941 298.37 65.0127 300.207C68.7212 296.751 73.0641 294.012 77.8129 292.133L78.6077 291.82C84.1614 292.476 90.035 293.889 95.4442 292.123C95.599 292.073 95.5371 291.83 95.3719 291.881C90.1383 293.152 85.1317 291.548 79.9703 291.296C85.5859 289.156 91.3254 287.451 96.9513 285.331C97.3952 285.15 97.4055 284.726 96.8894 284.857Z" fill="#DBDBDB"/>
<path d="M99.398 290.206C96.7131 290.545 94.0116 290.744 91.305 290.801C91.243 290.801 91.2224 290.902 91.305 290.912C94.0244 291.402 96.8253 291.228 99.4599 290.407C99.4873 290.399 99.5103 290.381 99.5239 290.357C99.5374 290.332 99.5404 290.303 99.5322 290.276C99.524 290.25 99.5052 290.227 99.4801 290.214C99.4549 290.201 99.4254 290.198 99.398 290.206Z" fill="#DBDBDB"/>
<path d="M81.0753 284.988C79.5802 285.643 78.2249 286.567 77.0804 287.713C76.9358 287.834 77.0804 288.076 77.2765 287.965C77.9578 287.481 78.6597 287.027 79.341 286.583C80.0145 286.219 80.6659 285.818 81.292 285.382C81.4985 285.23 81.3024 284.918 81.0753 284.988Z" fill="#DBDBDB"/>
<path d="M37.5336 304.566C37.6161 304.768 37.3271 304.95 37.2136 304.738C37.1912 304.77 37.1622 304.797 37.1285 304.818C37.0947 304.839 37.0569 304.853 37.0174 304.859C32.0632 306.017 27.0401 306.873 21.9772 307.422C17.8997 307.775 13.1925 307.997 9.58983 305.686C4.74846 302.548 1.56905 294.162 4.1807 288.843C7.27753 282.516 16.568 285.947 21.2752 288.197C28.4856 291.627 34.2384 297.419 37.5336 304.566Z" fill="#FFC727"/>
<path d="M41.1465 307.493C38.4277 304.932 35.4099 302.693 32.1554 300.822C29.8027 297.193 26.6846 294.096 23.0094 291.74C22.8339 291.629 22.6791 291.901 22.8443 292.022C25.7608 294.301 28.3448 296.96 30.5244 299.924C26.8954 297.973 23.1242 296.287 19.2416 294.878C17.8539 292.364 15.7486 290.299 13.1821 288.934C13.1821 288.934 13.0686 288.985 13.1202 289.015C15.2396 290.59 17.0868 292.488 18.5913 294.636C16.2996 293.798 13.9873 293.021 11.6647 292.274C11.4582 292.204 11.386 292.517 11.5821 292.587C15.7112 294.162 19.9126 295.827 23.9694 297.734C18.991 298.511 13.918 298.511 8.93949 297.734C8.91209 297.73 8.88403 297.735 8.86063 297.75C8.83723 297.765 8.8201 297.787 8.81248 297.813C8.80485 297.839 8.80726 297.867 8.81925 297.892C8.83124 297.916 8.85199 297.935 8.87756 297.946C14.076 299.445 19.5948 299.525 24.8366 298.178C27.437 299.416 29.9633 300.797 32.4031 302.316C30.3487 302.155 28.2813 302.322 26.2817 302.81C22.7706 303.594 19.1784 303.976 15.577 303.951C15.4428 303.951 15.4015 304.162 15.577 304.183C21.7707 305.192 27.7063 302.467 33.8896 303.173C36.1779 304.705 38.3293 306.423 40.3207 308.31C44.1726 312.08 47.3482 316.457 49.7144 321.258C52.3158 326.435 53.7196 331.925 55.8255 337.273C55.8392 337.323 55.8724 337.365 55.9179 337.39C55.9634 337.416 56.0174 337.423 56.0681 337.409C56.1187 337.396 56.1619 337.364 56.188 337.319C56.2141 337.275 56.2211 337.222 56.2074 337.172C54.3803 326.637 49.0021 315.001 41.1465 307.493Z" fill="#263238"/>
<path d="M22.3389 293.031C21.9292 292.311 21.3908 291.669 20.7491 291.134C20.2171 290.574 19.5836 290.116 18.8807 289.782C18.8188 289.782 18.7878 289.842 18.8188 289.883C19.3349 290.458 20.0472 290.892 20.5943 291.417C21.1414 291.941 21.6266 292.597 22.1737 293.132C22.1874 293.154 22.2092 293.169 22.2344 293.175C22.2595 293.18 22.286 293.176 22.3079 293.163C22.3298 293.149 22.3454 293.128 22.3512 293.103C22.357 293.079 22.3525 293.053 22.3389 293.031Z" fill="#263238"/>
<path d="M12.0571 296.301C11.1384 296.069 10.1577 296.089 9.21833 295.897C8.2832 295.685 7.36266 295.415 6.46216 295.09C6.43526 295.081 6.40572 295.081 6.37943 295.092C6.35314 295.103 6.33203 295.123 6.3203 295.149C6.30858 295.174 6.30711 295.203 6.31618 295.23C6.32525 295.256 6.3442 295.278 6.36925 295.292C8.07018 296.318 10.0678 296.771 12.0571 296.584C12.0863 296.573 12.1114 296.553 12.1291 296.528C12.1469 296.503 12.1563 296.473 12.1563 296.442C12.1563 296.412 12.1469 296.382 12.1291 296.357C12.1114 296.331 12.0863 296.312 12.0571 296.301Z" fill="#263238"/>
<path d="M70.804 318.654L69.782 329.947L66.3342 368.063H35.7995L31.4845 329.947L30.2148 318.654H70.804Z" fill="#C7C7C7"/>
<path d="M70.804 318.654L69.782 329.947H31.4845L30.2148 318.654H70.804Z" fill="#A6A6A6"/>
<path d="M73.8287 315.576H27.1904V324.739H73.8287V315.576Z" fill="#C7C7C7"/>
<path d="M249.997 57.7235H217.077V65.5345H249.997V57.7235Z" fill="#EBEBEB"/>
<path d="M237.527 77.7151V45.5327H229.537V77.7151H237.527Z" fill="#EBEBEB"/>
<path d="M69.7511 76.817H36.8318V84.6279H69.7511V76.817Z" fill="#EBEBEB"/>
<path d="M53.2967 72.4372C55.503 72.4372 57.2916 70.6886 57.2916 68.5317C57.2916 66.3748 55.503 64.6262 53.2967 64.6262C51.0903 64.6262 49.3018 66.3748 49.3018 68.5317C49.3018 70.6886 51.0903 72.4372 53.2967 72.4372Z" fill="#EBEBEB"/>
<path d="M53.2967 96.8086C55.503 96.8086 57.2916 95.06 57.2916 92.9031C57.2916 90.7462 55.503 88.9976 53.2967 88.9976C51.0903 88.9976 49.3018 90.7462 49.3018 92.9031C49.3018 95.06 51.0903 96.8086 53.2967 96.8086Z" fill="#EBEBEB"/>
<path d="M138.588 10.9476L115.311 33.704L120.961 39.2272L144.238 16.4708L138.588 10.9476Z" fill="#EBEBEB"/>
<path d="M144.231 33.7103L120.953 10.9539L115.304 16.4771L138.581 39.2335L144.231 33.7103Z" fill="#EBEBEB"/>
<path d="M46.8966 157.238H13.9773V165.049H46.8966V157.238Z" fill="#EBEBEB"/>
<path d="M46.8966 142.736H13.9773V150.547H46.8966V142.736Z" fill="#EBEBEB"/>
<path d="M421.788 400.962C421.788 412.345 330.143 421.569 217.077 421.569C104.012 421.569 12.3667 412.345 12.3667 400.962C12.3667 389.579 104.012 380.355 217.077 380.355C330.143 380.355 421.788 389.629 421.788 400.962Z" fill="#EBEBEB"/>
<path d="M7.50464 367.871L59.903 367.629L112.291 367.538L217.077 367.377L321.864 367.538L374.252 367.629L426.64 367.871L374.252 368.124L321.864 368.214L217.077 368.376L112.291 368.214L59.903 368.124L7.50464 367.871Z" fill="#263238"/>
<path d="M397.571 83.972H188.999V400.972H397.571V83.972Z" fill="#FFC727"/>
<path d="M382.458 83.972H173.887V400.972H382.458V83.972Z" fill="#FFC727"/>
<path opacity="0.1" d="M382.458 83.972H173.887V400.972H382.458V83.972Z" fill="black"/>
<path d="M230.053 164.847H189.949V204.053H230.053V164.847Z" fill="white"/>
<path d="M275.494 164.847H235.39V204.053H275.494V164.847Z" fill="white"/>
<path d="M320.945 164.847H280.841V204.053H320.945V164.847Z" fill="#FFC727"/>
<path d="M366.386 164.847H326.282V204.053H366.386V164.847Z" fill="#FFC727"/>
<path d="M230.053 209.815H189.949V249.022H230.053V209.815Z" fill="#37474F"/>
<path d="M275.494 209.815H235.39V249.022H275.494V209.815Z" fill="#37474F"/>
<path d="M320.945 209.815H280.841V249.022H320.945V209.815Z" fill="#37474F"/>
<path d="M366.386 210.098H326.282V249.304H366.386V210.098Z" fill="white"/>
<path d="M230.053 254.784H189.949V293.99H230.053V254.784Z" fill="#37474F"/>
<path d="M275.494 254.784H235.39V293.99H275.494V254.784Z" fill="#37474F"/>
<path d="M320.945 254.784H280.841V293.99H320.945V254.784Z" fill="#37474F"/>
<path d="M366.386 254.784H326.282V293.99H366.386V254.784Z" fill="white"/>
<path d="M230.053 299.753H189.949V338.959H230.053V299.753Z" fill="#37474F"/>
<path d="M275.494 299.753H235.39V338.959H275.494V299.753Z" fill="#37474F"/>
<path d="M320.945 299.753H280.841V338.959H320.945V299.753Z" fill="#37474F"/>
<path d="M366.386 299.753H326.282V338.959H366.386V299.753Z" fill="white"/>
<path d="M230.053 344.721H189.949V383.927H230.053V344.721Z" fill="#37474F"/>
<path d="M275.494 344.721H235.39V383.927H275.494V344.721Z" fill="#37474F"/>
<path d="M320.945 344.721H280.841V383.927H320.945V344.721Z" fill="white"/>
<path d="M366.386 344.721H326.282V383.927H366.386V344.721Z" fill="white"/>
<path d="M204.04 180.64C204.017 180.269 204.072 179.896 204.201 179.546C204.33 179.195 204.531 178.874 204.79 178.602C205.05 178.329 205.363 178.111 205.711 177.96C206.06 177.809 206.436 177.729 206.817 177.724C207.193 177.729 207.564 177.808 207.909 177.958C208.253 178.107 208.562 178.323 208.818 178.593C209.074 178.863 209.271 179.181 209.397 179.528C209.523 179.875 209.576 180.243 209.552 180.61C209.574 180.982 209.519 181.355 209.391 181.706C209.262 182.057 209.062 182.379 208.802 182.652C208.543 182.926 208.229 183.145 207.881 183.297C207.533 183.449 207.157 183.531 206.775 183.537C206.398 183.531 206.027 183.45 205.683 183.299C205.339 183.149 205.029 182.931 204.774 182.661C204.518 182.39 204.321 182.071 204.195 181.724C204.069 181.377 204.016 181.008 204.04 180.64ZM208.066 180.64C208.066 179.732 207.529 178.975 206.775 178.975C206.022 178.975 205.526 179.732 205.526 180.61C205.526 181.549 206.063 182.275 206.817 182.275C207.57 182.275 208.066 181.518 208.066 180.64ZM206.001 188.26L213.671 178.027C213.729 177.932 213.813 177.854 213.913 177.803C214.013 177.751 214.126 177.727 214.239 177.734C214.325 177.733 214.411 177.748 214.491 177.779C214.571 177.811 214.644 177.857 214.705 177.917C214.767 177.976 214.815 178.046 214.849 178.124C214.882 178.202 214.899 178.285 214.899 178.37C214.896 178.522 214.845 178.67 214.755 178.794L207.085 189.027C207.021 189.118 206.934 189.193 206.833 189.244C206.733 189.295 206.62 189.321 206.507 189.319C206.421 189.321 206.336 189.305 206.256 189.274C206.177 189.242 206.105 189.195 206.044 189.136C205.983 189.077 205.935 189.006 205.903 188.928C205.871 188.851 205.855 188.767 205.857 188.683C205.846 188.535 205.882 188.387 205.96 188.26H206.001ZM211.162 186.483C211.14 186.112 211.195 185.739 211.324 185.389C211.453 185.038 211.653 184.717 211.913 184.445C212.172 184.172 212.486 183.954 212.834 183.803C213.182 183.652 213.558 183.572 213.939 183.567C214.315 183.573 214.686 183.654 215.029 183.804C215.373 183.953 215.681 184.17 215.937 184.439C216.193 184.709 216.39 185.026 216.517 185.373C216.643 185.719 216.697 186.086 216.675 186.453C216.697 186.825 216.643 187.197 216.514 187.547C216.386 187.897 216.187 188.219 215.928 188.492C215.67 188.765 215.358 188.985 215.011 189.137C214.664 189.29 214.289 189.372 213.908 189.38C213.526 189.382 213.147 189.307 212.795 189.16C212.443 189.013 212.126 188.798 211.863 188.526C211.599 188.255 211.396 187.933 211.265 187.582C211.134 187.231 211.078 186.857 211.101 186.483H211.162ZM215.188 186.483C215.188 185.575 214.652 184.818 213.908 184.818C213.165 184.818 212.649 185.575 212.649 186.453C212.649 187.392 213.186 188.118 213.939 188.118C214.693 188.118 215.126 187.361 215.126 186.483H215.188Z" fill="#37474F"/>
<path d="M290.73 183.365C290.76 181.796 291.418 180.301 292.562 179.201C293.707 178.101 295.247 177.484 296.852 177.482C298.25 177.471 299.61 177.922 300.713 178.763C300.892 178.922 301.003 179.14 301.025 179.375C301.047 179.61 300.977 179.844 300.83 180.032C300.683 180.219 300.469 180.345 300.231 180.385C299.993 180.425 299.749 180.375 299.546 180.247C298.783 179.649 297.83 179.332 296.852 179.349C295.735 179.355 294.662 179.773 293.848 180.519C293.073 181.273 292.634 182.296 292.63 183.365C292.628 183.893 292.735 184.417 292.945 184.904C293.154 185.391 293.461 185.832 293.848 186.201C294.661 186.95 295.734 187.372 296.852 187.382C297.829 187.397 298.782 187.079 299.546 186.483C299.753 186.352 300 186.297 300.244 186.329C300.489 186.36 300.713 186.476 300.878 186.655C301.016 186.857 301.076 187.1 301.045 187.341C301.015 187.582 300.897 187.804 300.713 187.967C299.607 188.8 298.248 189.248 296.852 189.238C295.246 189.244 293.703 188.63 292.557 187.531C291.411 186.431 290.755 184.935 290.73 183.365Z" fill="#37474F"/>
<path d="M304.119 188.34V178.713C304.116 178.594 304.138 178.476 304.183 178.366C304.228 178.256 304.296 178.156 304.382 178.072C304.468 177.988 304.57 177.922 304.683 177.877C304.795 177.833 304.916 177.812 305.038 177.815H310.488C310.716 177.838 310.927 177.944 311.081 178.11C311.234 178.277 311.319 178.494 311.319 178.718C311.319 178.942 311.234 179.159 311.081 179.325C310.927 179.492 310.716 179.597 310.488 179.621H305.967V182.649H309.858C310.105 182.649 310.341 182.744 310.515 182.915C310.69 183.085 310.787 183.316 310.787 183.557C310.787 183.798 310.69 184.029 310.515 184.199C310.341 184.369 310.105 184.465 309.858 184.465H305.967V187.493H310.488C310.733 187.5 310.965 187.6 311.136 187.771C311.307 187.942 311.404 188.172 311.407 188.411C311.402 188.647 311.303 188.873 311.132 189.04C310.961 189.208 310.73 189.304 310.488 189.309H305.079C304.948 189.317 304.817 189.297 304.695 189.251C304.573 189.204 304.462 189.133 304.371 189.041C304.28 188.949 304.21 188.838 304.166 188.717C304.123 188.597 304.107 188.468 304.119 188.34Z" fill="#37474F"/>
<path d="M341.126 183.365C341.156 181.796 341.814 180.301 342.958 179.201C344.103 178.101 345.643 177.484 347.248 177.482C348.646 177.471 350.006 177.922 351.108 178.763C351.287 178.922 351.399 179.14 351.421 179.375C351.443 179.61 351.373 179.844 351.226 180.032C351.079 180.219 350.865 180.345 350.627 180.385C350.389 180.425 350.144 180.375 349.942 180.247C349.178 179.651 348.225 179.333 347.248 179.349C346.131 179.355 345.058 179.773 344.244 180.519C343.468 181.273 343.03 182.296 343.026 183.365C343.024 183.893 343.131 184.417 343.34 184.904C343.55 185.391 343.857 185.832 344.244 186.201C345.057 186.95 346.13 187.372 347.248 187.382C348.225 187.395 349.177 187.078 349.942 186.483C350.148 186.352 350.396 186.297 350.64 186.329C350.884 186.36 351.109 186.476 351.273 186.655C351.412 186.857 351.472 187.1 351.441 187.341C351.411 187.582 351.293 187.804 351.108 187.967C350.001 188.798 348.643 189.245 347.248 189.238C345.642 189.244 344.099 188.63 342.953 187.531C341.807 186.431 341.151 184.935 341.126 183.365Z" fill="#37474F"/>
<path d="M213.661 224.913L209.532 234.56C209.466 234.726 209.349 234.867 209.197 234.964C209.045 235.062 208.867 235.111 208.685 235.105C208.565 235.105 208.445 235.081 208.334 235.035C208.112 234.941 207.935 234.767 207.841 234.549C207.747 234.33 207.742 234.085 207.828 233.864L211.441 225.488H207.126C206.882 225.48 206.65 225.38 206.478 225.209C206.307 225.038 206.21 224.809 206.208 224.569C206.208 224.331 206.305 224.103 206.477 223.934C206.649 223.766 206.883 223.671 207.126 223.671H212.856C212.91 223.662 212.966 223.662 213.021 223.671C213.143 223.7 213.261 223.744 213.372 223.802V223.853C213.372 223.853 213.423 223.853 213.434 223.914C213.444 223.974 213.485 223.964 213.506 223.984C213.527 224.004 213.506 224.035 213.506 224.045V224.125L213.568 224.216C213.568 224.216 213.568 224.277 213.568 224.297C213.574 224.324 213.574 224.351 213.568 224.378C213.589 224.495 213.589 224.614 213.568 224.731C213.611 224.785 213.643 224.846 213.661 224.913Z" fill="white"/>
<path d="M259.091 231.19C259.093 231.866 258.915 232.531 258.576 233.12C258.236 233.709 257.745 234.201 257.152 234.549C256.559 234.897 255.884 235.089 255.192 235.105C254.501 235.121 253.817 234.962 253.207 234.642C252.598 234.322 252.084 233.853 251.715 233.281C251.347 232.709 251.137 232.053 251.105 231.377C251.074 230.702 251.223 230.03 251.537 229.427C251.851 228.825 252.32 228.312 252.897 227.94C252.637 227.598 252.462 227.201 252.389 226.78C252.316 226.36 252.346 225.928 252.477 225.521C252.608 225.114 252.835 224.744 253.141 224.44C253.447 224.135 253.823 223.907 254.237 223.772C254.651 223.637 255.091 223.601 255.523 223.665C255.954 223.73 256.363 223.893 256.717 224.142C257.071 224.392 257.36 224.72 257.559 225.099C257.758 225.479 257.862 225.899 257.863 226.325C257.864 226.909 257.668 227.477 257.305 227.94C257.853 228.297 258.303 228.78 258.614 229.346C258.926 229.913 259.089 230.546 259.091 231.19ZM257.264 231.19C257.264 230.63 257.039 230.093 256.637 229.695C256.235 229.296 255.689 229.068 255.117 229.06C254.539 229.063 253.986 229.288 253.576 229.686C253.166 230.085 252.934 230.625 252.928 231.19C252.937 231.751 253.171 232.286 253.581 232.679C253.991 233.072 254.543 233.291 255.117 233.289C255.686 233.289 256.232 233.068 256.635 232.674C257.038 232.28 257.264 231.746 257.264 231.19ZM254.167 226.325C254.167 226.569 254.266 226.803 254.442 226.975C254.618 227.147 254.857 227.244 255.107 227.244C255.356 227.244 255.595 227.147 255.771 226.975C255.947 226.803 256.046 226.569 256.046 226.325C256.043 226.088 255.946 225.861 255.774 225.693C255.602 225.525 255.37 225.43 255.127 225.427C255 225.423 254.874 225.444 254.756 225.489C254.637 225.534 254.53 225.602 254.439 225.689C254.348 225.776 254.277 225.879 254.228 225.994C254.18 226.109 254.155 226.232 254.157 226.356L254.167 226.325Z" fill="white"/>
<path d="M296.635 227.627C296.655 226.624 297.064 225.666 297.778 224.946C298.492 224.226 299.459 223.797 300.484 223.745C301.509 223.694 302.515 224.025 303.301 224.67C304.087 225.315 304.593 226.228 304.718 227.224C304.718 227.526 304.718 227.839 304.718 228.152C304.731 229.291 304.531 230.423 304.129 231.492C303.729 232.623 302.974 233.601 301.972 234.288C301.229 234.768 300.364 235.034 299.474 235.055C299.352 235.06 299.23 235.042 299.115 235.001C299 234.961 298.895 234.898 298.804 234.817C298.714 234.737 298.641 234.64 298.59 234.531C298.538 234.423 298.509 234.306 298.503 234.187C298.5 233.947 298.592 233.716 298.76 233.541C298.927 233.366 299.157 233.261 299.402 233.248C299.958 233.234 300.5 233.074 300.971 232.784C301.405 232.492 301.759 232.101 302.003 231.644C302.087 231.509 302.16 231.367 302.22 231.22C301.715 231.436 301.17 231.546 300.62 231.543C299.563 231.53 298.555 231.112 297.81 230.38C297.065 229.648 296.643 228.66 296.635 227.627ZM298.493 227.627C298.472 227.921 298.514 228.216 298.615 228.494C298.716 228.772 298.874 229.026 299.08 229.241C299.285 229.457 299.534 229.629 299.811 229.746C300.087 229.863 300.385 229.924 300.687 229.924C300.988 229.924 301.286 229.863 301.563 229.746C301.839 229.629 302.088 229.457 302.294 229.241C302.5 229.026 302.658 228.772 302.759 228.494C302.859 228.216 302.901 227.921 302.88 227.627C302.842 227.084 302.594 226.575 302.187 226.203C301.78 225.832 301.244 225.625 300.687 225.625C300.13 225.625 299.593 225.832 299.186 226.203C298.779 226.575 298.531 227.084 298.493 227.627Z" fill="white"/>
<path d="M342.747 229.706C342.747 229.438 342.856 229.182 343.049 228.993C343.243 228.803 343.505 228.697 343.779 228.697H348.94C349.159 228.755 349.352 228.882 349.49 229.058C349.627 229.234 349.702 229.449 349.702 229.671C349.702 229.892 349.627 230.108 349.49 230.284C349.352 230.46 349.159 230.587 348.94 230.645H343.779C343.517 230.645 343.265 230.549 343.074 230.374C342.882 230.2 342.765 229.961 342.747 229.706Z" fill="#37474F"/>
<path d="M214.476 276.754C214.476 276.873 214.452 276.992 214.404 277.102C214.357 277.212 214.287 277.312 214.2 277.396C214.112 277.48 214.008 277.545 213.895 277.589C213.781 277.633 213.659 277.654 213.537 277.652H213.372V278.893C213.372 279.131 213.275 279.36 213.102 279.528C212.93 279.697 212.696 279.791 212.453 279.791C212.209 279.791 211.975 279.697 211.803 279.528C211.631 279.36 211.534 279.131 211.534 278.893V277.611H206.28C206.071 277.62 205.867 277.547 205.712 277.41C205.615 277.339 205.534 277.25 205.473 277.149C205.412 277.047 205.374 276.934 205.359 276.816C205.345 276.699 205.355 276.581 205.389 276.467C205.423 276.354 205.48 276.249 205.557 276.158L211.751 268.65V268.579C211.781 268.585 211.811 268.583 211.84 268.574C211.869 268.565 211.895 268.55 211.916 268.529C211.916 268.529 211.916 268.529 211.978 268.478C212.04 268.428 211.978 268.478 212.081 268.478C212.184 268.478 212.081 268.428 212.143 268.428H212.246C212.27 268.436 212.295 268.436 212.319 268.428H212.597C212.624 268.437 212.653 268.437 212.68 268.428C212.68 268.428 212.752 268.428 212.783 268.428H212.845L212.938 268.488C212.938 268.488 212.938 268.488 213.021 268.539H213.072L213.144 268.61V268.67C213.173 268.693 213.198 268.72 213.217 268.751C213.209 268.774 213.209 268.799 213.217 268.822C213.224 268.851 213.224 268.882 213.217 268.912C213.217 268.912 213.217 268.963 213.217 268.983C213.228 269.012 213.228 269.044 213.217 269.074C213.217 269.074 213.217 269.124 213.217 269.165V275.805H213.382C213.52 275.78 213.663 275.787 213.799 275.824C213.934 275.861 214.06 275.927 214.165 276.019C214.271 276.11 214.353 276.224 214.407 276.351C214.461 276.478 214.485 276.616 214.476 276.754ZM211.534 271.819L208.21 275.855H211.534V271.819Z" fill="white"/>
<path d="M257.646 272.868C258.033 273.245 258.341 273.693 258.55 274.187C258.759 274.681 258.866 275.21 258.864 275.744C258.86 276.822 258.422 277.855 257.646 278.62C257.263 278.997 256.808 279.296 256.307 279.5C255.805 279.705 255.268 279.81 254.725 279.811C254.184 279.812 253.649 279.707 253.151 279.503C252.653 279.298 252.201 278.998 251.824 278.62C251.733 278.536 251.661 278.434 251.612 278.321C251.563 278.208 251.537 278.087 251.537 277.964C251.537 277.842 251.563 277.721 251.612 277.608C251.661 277.495 251.733 277.393 251.824 277.309C252.001 277.138 252.241 277.042 252.49 277.042C252.739 277.042 252.978 277.138 253.155 277.309C253.363 277.516 253.611 277.681 253.885 277.794C254.159 277.907 254.453 277.965 254.75 277.965C255.047 277.965 255.342 277.907 255.616 277.794C255.889 277.681 256.138 277.516 256.345 277.309C256.768 276.9 257.009 276.345 257.016 275.765C257.016 275.18 256.779 274.619 256.358 274.205C255.936 273.791 255.364 273.557 254.766 273.554C254.468 273.551 254.172 273.606 253.896 273.715C253.619 273.824 253.368 273.986 253.155 274.19C253.068 274.276 252.964 274.344 252.85 274.39C252.736 274.437 252.613 274.461 252.49 274.461C252.366 274.461 252.243 274.437 252.129 274.39C252.015 274.344 251.911 274.276 251.824 274.19C251.752 274.13 251.71 274.049 251.638 273.978C251.566 273.908 251.638 273.928 251.638 273.928C251.647 273.902 251.647 273.873 251.638 273.847C251.638 273.797 251.638 273.766 251.638 273.736C251.617 273.643 251.617 273.547 251.638 273.454L252.144 269.225C252.163 269.095 252.209 268.971 252.28 268.859C252.351 268.748 252.446 268.653 252.557 268.579C252.557 268.579 252.608 268.579 252.619 268.579C252.629 268.579 252.619 268.579 252.67 268.579C252.806 268.515 252.954 268.481 253.104 268.478H258.038C258.17 268.465 258.304 268.479 258.431 268.519C258.557 268.559 258.674 268.625 258.773 268.712C258.871 268.799 258.95 268.905 259.005 269.024C259.059 269.143 259.087 269.272 259.087 269.402C259.087 269.532 259.059 269.66 259.005 269.779C258.95 269.898 258.871 270.004 258.773 270.092C258.674 270.179 258.557 270.244 258.431 270.285C258.304 270.325 258.17 270.339 258.038 270.325H253.909L253.703 271.94C254.07 271.848 254.448 271.801 254.828 271.798C255.872 271.794 256.879 272.176 257.646 272.868Z" fill="white"/>
<path d="M304.738 275.835C304.72 276.839 304.313 277.798 303.6 278.52C302.887 279.242 301.92 279.673 300.894 279.725C299.869 279.778 298.861 279.448 298.075 278.803C297.288 278.158 296.781 277.245 296.656 276.249C296.656 275.946 296.656 275.633 296.656 275.321C296.645 274.182 296.84 273.051 297.234 271.98C297.638 270.851 298.392 269.874 299.391 269.185C300.138 268.705 301.007 268.439 301.9 268.418C302.021 268.412 302.143 268.431 302.257 268.471C302.371 268.512 302.476 268.575 302.565 268.656C302.655 268.736 302.727 268.834 302.777 268.942C302.828 269.05 302.856 269.167 302.86 269.286C302.86 269.525 302.768 269.757 302.602 269.933C302.435 270.109 302.206 270.216 301.962 270.234C301.406 270.24 300.862 270.398 300.393 270.688C299.965 270.988 299.613 271.378 299.36 271.829C299.278 271.96 299.216 272.111 299.144 272.253C299.648 272.036 300.193 271.926 300.744 271.93C301.798 271.945 302.805 272.362 303.551 273.091C304.296 273.82 304.722 274.804 304.738 275.835ZM302.88 275.835C302.901 275.541 302.86 275.246 302.759 274.968C302.658 274.691 302.5 274.436 302.294 274.221C302.088 274.006 301.839 273.834 301.563 273.716C301.286 273.599 300.988 273.538 300.687 273.538C300.385 273.538 300.087 273.599 299.811 273.716C299.534 273.834 299.285 274.006 299.08 274.221C298.874 274.436 298.716 274.691 298.615 274.968C298.514 275.246 298.473 275.541 298.493 275.835C298.531 276.378 298.779 276.887 299.186 277.259C299.593 277.631 300.13 277.838 300.687 277.838C301.244 277.838 301.78 277.631 302.187 277.259C302.595 276.887 302.842 276.378 302.88 275.835Z" fill="white"/>
<path d="M343.098 274.887C342.868 274.887 342.647 274.797 342.484 274.638C342.322 274.479 342.23 274.264 342.23 274.039C342.23 273.814 342.322 273.598 342.484 273.439C342.647 273.281 342.868 273.191 343.098 273.191H349.849C350.079 273.191 350.299 273.281 350.462 273.439C350.624 273.598 350.716 273.814 350.716 274.039C350.716 274.264 350.624 274.479 350.462 274.638C350.299 274.797 350.079 274.887 349.849 274.887H343.098ZM347.619 270.598V270.678C347.592 270.958 347.459 271.218 347.246 271.408C347.033 271.597 346.756 271.702 346.468 271.702C346.18 271.702 345.903 271.597 345.69 271.408C345.477 271.218 345.344 270.958 345.317 270.678V270.598C345.344 270.318 345.477 270.057 345.69 269.868C345.903 269.679 346.18 269.574 346.468 269.574C346.756 269.574 347.033 269.679 347.246 269.868C347.459 270.057 347.592 270.318 347.619 270.598ZM347.619 277.399V277.49C347.592 277.77 347.459 278.03 347.246 278.22C347.033 278.409 346.756 278.514 346.468 278.514C346.18 278.514 345.903 278.409 345.69 278.22C345.477 278.03 345.344 277.77 345.317 277.49V277.399C345.344 277.119 345.477 276.859 345.69 276.67C345.903 276.481 346.18 276.376 346.468 276.376C346.756 276.376 347.033 276.481 347.246 276.67C347.459 276.859 347.592 277.119 347.619 277.399Z" fill="#37474F"/>
<path d="M211.761 314.224V323.862C211.76 323.981 211.734 324.099 211.686 324.208C211.638 324.318 211.569 324.417 211.482 324.501C211.394 324.584 211.291 324.65 211.178 324.695C211.065 324.739 210.944 324.761 210.822 324.76C210.701 324.761 210.582 324.739 210.47 324.694C210.358 324.649 210.257 324.583 210.173 324.499C210.088 324.415 210.021 324.316 209.977 324.206C209.932 324.097 209.911 323.979 209.913 323.862V315.788L209.242 316.162C209.104 316.25 208.943 316.295 208.778 316.293C208.578 316.29 208.384 316.225 208.225 316.105C208.066 315.986 207.951 315.82 207.896 315.632C207.842 315.444 207.851 315.243 207.922 315.061C207.994 314.878 208.124 314.722 208.293 314.618L210.357 313.417H210.419C210.419 313.417 210.471 313.417 210.502 313.366H210.605C210.605 313.366 210.657 313.366 210.667 313.366C210.708 313.356 210.75 313.356 210.791 313.366H210.966C210.99 313.375 211.015 313.375 211.038 313.366C211.09 313.366 211.1 313.366 211.142 313.366C211.162 313.358 211.184 313.358 211.204 313.366C211.204 313.366 211.276 313.417 211.307 313.417L211.369 313.467L211.441 313.518C211.469 313.53 211.491 313.551 211.503 313.578V313.639L211.575 313.709C211.575 313.709 211.575 313.709 211.575 313.76C211.575 313.81 211.575 313.81 211.575 313.841C211.575 313.871 211.575 313.911 211.575 313.921C211.573 313.948 211.573 313.975 211.575 314.002C211.56 314.041 211.56 314.084 211.575 314.123L211.761 314.224Z" fill="white"/>
<path d="M259.153 323.861C259.154 323.98 259.131 324.097 259.086 324.207C259.04 324.316 258.973 324.416 258.887 324.5C258.801 324.583 258.699 324.649 258.587 324.694C258.475 324.739 258.355 324.761 258.234 324.76H252.288C252.16 324.761 252.033 324.735 251.916 324.685C251.798 324.634 251.693 324.56 251.607 324.467C251.44 324.29 251.352 324.056 251.362 323.816C251.371 323.576 251.478 323.349 251.659 323.185L256.603 318.816C256.927 318.529 257.154 318.154 257.255 317.738C257.356 317.323 257.325 316.888 257.168 316.49C257.01 316.092 256.733 315.75 256.372 315.509C256.011 315.269 255.584 315.141 255.148 315.142C254.613 315.145 254.096 315.335 253.692 315.677L253.176 316.141C252.99 316.275 252.761 316.337 252.531 316.314C252.302 316.292 252.089 316.187 251.934 316.019C251.78 315.852 251.695 315.634 251.695 315.409C251.696 315.183 251.782 314.966 251.937 314.799L252.453 314.345C253.19 313.691 254.152 313.33 255.148 313.336C255.708 313.337 256.262 313.453 256.774 313.675C257.285 313.898 257.744 314.222 258.121 314.628C258.793 315.347 259.162 316.288 259.153 317.262C259.152 317.809 259.033 318.351 258.806 318.851C258.578 319.352 258.247 319.8 257.832 320.168L254.683 322.953H258.234C258.479 322.956 258.712 323.053 258.884 323.223C259.056 323.393 259.153 323.622 259.153 323.861Z" fill="white"/>
<path d="M303.211 317.817C303.599 318.189 303.907 318.633 304.116 319.124C304.326 319.614 304.432 320.141 304.429 320.673C304.438 321.477 304.2 322.266 303.747 322.938C303.294 323.61 302.646 324.134 301.886 324.443C301.126 324.753 300.289 324.833 299.482 324.673C298.675 324.514 297.935 324.122 297.358 323.549C297.181 323.376 297.082 323.142 297.082 322.898C297.082 322.654 297.181 322.419 297.358 322.247C297.534 322.074 297.774 321.977 298.023 321.977C298.273 321.977 298.513 322.074 298.689 322.247C298.898 322.451 299.146 322.612 299.419 322.721C299.692 322.83 299.984 322.885 300.279 322.883C300.876 322.882 301.45 322.654 301.879 322.247C302.093 322.042 302.262 321.797 302.378 321.526C302.493 321.256 302.551 320.965 302.55 320.673C302.552 320.384 302.494 320.098 302.378 319.832C302.263 319.567 302.093 319.327 301.879 319.129C301.671 318.922 301.424 318.757 301.151 318.645C300.878 318.532 300.585 318.474 300.289 318.473C300.16 318.48 300.031 318.458 299.912 318.407C299.794 318.356 299.69 318.278 299.608 318.18C299.52 318.095 299.451 317.993 299.403 317.881C299.356 317.77 299.331 317.65 299.331 317.529C299.331 317.408 299.356 317.288 299.403 317.177C299.451 317.065 299.52 316.963 299.608 316.878L301.311 315.183H298.607C298.482 315.181 298.359 315.156 298.244 315.108C298.129 315.06 298.025 314.991 297.938 314.904C297.851 314.816 297.782 314.713 297.736 314.6C297.689 314.487 297.666 314.366 297.667 314.244C297.667 314.124 297.692 314.005 297.739 313.894C297.786 313.783 297.856 313.683 297.943 313.598C298.03 313.514 298.134 313.447 298.248 313.402C298.362 313.357 298.484 313.335 298.607 313.336H303.531C303.694 313.334 303.854 313.375 303.997 313.452C304.139 313.53 304.258 313.643 304.343 313.779C304.427 313.916 304.474 314.071 304.478 314.231C304.482 314.39 304.444 314.548 304.367 314.688C304.318 314.769 304.262 314.847 304.202 314.92L302.137 317.04C302.541 317.232 302.904 317.495 303.211 317.817Z" fill="white"/>
<path d="M349.209 318.029L347.144 320.713L349.126 323.407C349.26 323.585 349.317 323.807 349.287 324.026C349.256 324.244 349.139 324.442 348.961 324.578C348.805 324.69 348.618 324.754 348.424 324.76C348.141 324.736 347.878 324.606 347.691 324.396L346.112 322.166L344.44 324.396C344.358 324.502 344.254 324.589 344.134 324.652C344.015 324.715 343.883 324.752 343.748 324.76C343.557 324.755 343.373 324.691 343.221 324.578C343.128 324.515 343.049 324.434 342.989 324.34C342.929 324.246 342.889 324.141 342.872 324.032C342.854 323.922 342.86 323.81 342.888 323.703C342.916 323.596 342.966 323.495 343.036 323.407L345.038 320.713L343.015 318.029C342.946 317.942 342.896 317.843 342.868 317.738C342.841 317.632 342.835 317.522 342.853 317.414C342.87 317.306 342.91 317.203 342.97 317.111C343.03 317.019 343.108 316.939 343.201 316.878C343.292 316.811 343.396 316.762 343.507 316.734C343.618 316.706 343.733 316.7 343.846 316.716C343.96 316.732 344.068 316.77 344.167 316.827C344.265 316.884 344.351 316.96 344.419 317.05L346.091 319.24L347.753 317.05C347.903 316.869 348.118 316.751 348.353 316.719C348.589 316.687 348.828 316.744 349.023 316.878C349.203 317.007 349.323 317.201 349.358 317.416C349.393 317.631 349.339 317.852 349.209 318.029Z" fill="#37474F"/>
<path d="M210.688 367.427C211.018 367.43 211.334 367.56 211.568 367.788C211.801 368.016 211.934 368.325 211.937 368.648C211.934 368.971 211.801 369.279 211.567 369.505C211.333 369.732 211.017 369.859 210.688 369.859C210.524 369.861 210.363 369.83 210.212 369.77C210.061 369.71 209.924 369.62 209.809 369.508C209.693 369.395 209.602 369.261 209.54 369.113C209.478 368.966 209.447 368.808 209.449 368.648C209.449 368.326 209.579 368.017 209.811 367.789C210.043 367.56 210.358 367.43 210.688 367.427Z" fill="white"/>
<path d="M250.606 364.016C250.585 362.634 250.98 361.276 251.741 360.111C252.043 359.565 252.49 359.109 253.035 358.791C253.58 358.473 254.203 358.306 254.838 358.306C255.473 358.306 256.096 358.473 256.641 358.791C257.186 359.109 257.633 359.565 257.935 360.111C258.664 361.287 259.049 362.636 259.049 364.011C259.049 365.387 258.664 366.736 257.935 367.912C257.636 368.461 257.189 368.919 256.644 369.239C256.098 369.559 255.474 369.728 254.838 369.728C254.202 369.728 253.578 369.559 253.032 369.239C252.487 368.919 252.041 368.461 251.741 367.912C250.982 366.75 250.587 365.395 250.606 364.016ZM257.202 364.016C257.22 362.993 256.941 361.985 256.397 361.11C256.247 360.828 256.026 360.587 255.755 360.411C255.485 360.235 255.173 360.128 254.848 360.101C254.52 360.133 254.205 360.241 253.928 360.417C253.651 360.592 253.422 360.83 253.259 361.11C252.731 361.988 252.453 362.988 252.453 364.006C252.453 365.025 252.731 366.024 253.259 366.903C253.422 367.183 253.651 367.421 253.928 367.596C254.205 367.772 254.52 367.88 254.848 367.912C255.172 367.881 255.482 367.773 255.752 367.597C256.022 367.421 256.244 367.182 256.397 366.903C256.938 366.034 257.217 365.033 257.202 364.016Z" fill="white"/>
<path d="M297.347 362.805C297.363 362.548 297.479 362.307 297.671 362.131C297.862 361.954 298.116 361.856 298.379 361.857H303.541C303.668 361.857 303.793 361.881 303.911 361.929C304.028 361.977 304.134 362.047 304.223 362.135C304.313 362.223 304.383 362.328 304.431 362.443C304.478 362.558 304.502 362.681 304.501 362.805C304.504 362.929 304.481 363.053 304.434 363.168C304.386 363.283 304.316 363.387 304.226 363.475C304.136 363.563 304.029 363.632 303.912 363.678C303.794 363.724 303.668 363.747 303.541 363.744H298.379C298.248 363.752 298.116 363.734 297.991 363.691C297.867 363.647 297.753 363.58 297.657 363.492C297.56 363.404 297.483 363.298 297.43 363.18C297.376 363.062 297.348 362.934 297.347 362.805ZM297.347 365.833C297.347 365.565 297.456 365.309 297.649 365.119C297.843 364.93 298.106 364.824 298.379 364.824H303.541C303.76 364.882 303.953 365.009 304.09 365.185C304.228 365.361 304.302 365.576 304.302 365.798C304.302 366.019 304.228 366.235 304.09 366.411C303.953 366.587 303.76 366.713 303.541 366.771H298.379C298.116 366.772 297.862 366.674 297.671 366.498C297.479 366.321 297.363 366.08 297.347 365.823V365.833Z" fill="#37474F"/>
<path d="M345.523 364.874H343.149C342.906 364.874 342.672 364.78 342.5 364.611C342.327 364.443 342.23 364.214 342.23 363.976C342.236 363.739 342.334 363.514 342.505 363.347C342.677 363.179 342.907 363.083 343.149 363.078H345.523V360.817C345.521 360.694 345.543 360.572 345.59 360.457C345.636 360.343 345.706 360.239 345.795 360.151C345.883 360.064 345.989 359.994 346.106 359.948C346.222 359.901 346.347 359.877 346.473 359.879C346.726 359.881 346.968 359.982 347.145 360.157C347.323 360.333 347.423 360.57 347.423 360.817V363.078H349.797C350.039 363.083 350.27 363.179 350.441 363.347C350.612 363.514 350.711 363.739 350.716 363.976C350.716 364.214 350.619 364.443 350.447 364.611C350.274 364.78 350.041 364.874 349.797 364.874H347.423V367.145C347.423 367.391 347.323 367.627 347.145 367.801C346.967 367.975 346.725 368.073 346.473 368.073C346.348 368.075 346.224 368.052 346.108 368.005C345.992 367.959 345.887 367.891 345.799 367.804C345.71 367.718 345.64 367.615 345.593 367.502C345.546 367.388 345.522 367.267 345.523 367.145V364.874Z" fill="#37474F"/>
<path d="M261.187 178.915C261.187 179.099 261.111 179.276 260.978 179.407C260.844 179.538 260.663 179.611 260.474 179.611H258.41C257.532 181.983 255.313 188.189 254.828 189.945C254.752 190.154 254.628 190.344 254.466 190.5C254.331 190.613 254.16 190.677 253.981 190.682C253.855 190.684 253.73 190.66 253.615 190.611C253.499 190.562 253.395 190.49 253.31 190.399C253.31 190.399 251.081 188.27 250.389 187.513C249.357 186.443 249.821 185.938 249.966 185.848C250.086 185.771 250.225 185.726 250.368 185.716C250.595 185.738 250.812 185.819 250.998 185.949L251.721 186.685C251.927 186.907 252.123 187.099 252.319 187.281L252.887 187.846L253.527 188.471C254.053 186.816 256.407 180.317 257.037 178.693C257.091 178.607 257.157 178.528 257.233 178.461C257.3 178.386 257.383 178.326 257.475 178.284C257.568 178.242 257.668 178.22 257.77 178.218H260.433C260.53 178.213 260.627 178.227 260.718 178.259C260.809 178.292 260.893 178.342 260.964 178.407C261.034 178.473 261.09 178.551 261.129 178.639C261.167 178.726 261.187 178.82 261.187 178.915Z" fill="#37474F"/>
<path d="M366.396 100.744H189.949V142.019H366.396V100.744Z" fill="#455A64"/>
<path d="M286.735 113.117V129.193C286.73 129.593 286.563 129.974 286.271 130.254C285.979 130.534 285.586 130.689 285.177 130.686C284.975 130.689 284.775 130.652 284.589 130.578C284.402 130.504 284.233 130.394 284.09 130.255C283.948 130.116 283.835 129.95 283.759 129.768C283.684 129.585 283.646 129.39 283.649 129.193V115.791L282.534 116.427C282.299 116.57 282.026 116.644 281.749 116.639C281.416 116.631 281.094 116.519 280.83 116.319C280.567 116.119 280.376 115.841 280.286 115.527C280.196 115.213 280.211 114.879 280.33 114.574C280.448 114.269 280.664 114.01 280.944 113.833L284.371 111.815C284.371 111.815 284.454 111.815 284.485 111.765C284.516 111.714 284.568 111.704 284.619 111.684H284.784C284.821 111.67 284.861 111.67 284.898 111.684C284.962 111.669 285.03 111.669 285.094 111.684H285.404C285.404 111.684 285.486 111.684 285.507 111.684C285.571 111.685 285.632 111.706 285.682 111.744C285.682 111.744 285.765 111.744 285.786 111.744C285.806 111.744 285.899 111.825 285.961 111.825C285.986 111.862 286.022 111.89 286.064 111.906C286.064 111.906 286.157 111.966 286.178 111.997C286.199 112.027 286.26 112.077 286.291 112.098C286.324 112.131 286.352 112.168 286.374 112.209L286.488 112.32V112.37C286.488 112.37 286.488 112.431 286.488 112.461C286.488 112.491 286.55 112.542 286.55 112.592C286.55 112.643 286.55 112.703 286.55 112.723C286.546 112.77 286.546 112.818 286.55 112.865C286.544 112.898 286.546 112.933 286.555 112.966C286.564 112.999 286.58 113.029 286.601 113.056L286.735 113.117Z" fill="white"/>
<path d="M302.87 129.203C302.873 129.4 302.835 129.595 302.759 129.778C302.683 129.96 302.571 130.126 302.429 130.265C302.286 130.404 302.117 130.514 301.93 130.588C301.743 130.663 301.544 130.699 301.342 130.697H291.401C291.185 130.701 290.97 130.658 290.772 130.573C290.575 130.488 290.398 130.361 290.255 130.202C289.98 129.91 289.834 129.523 289.85 129.126C289.865 128.729 290.041 128.354 290.338 128.083L298.596 120.776C298.976 120.451 299.278 120.049 299.481 119.597C299.684 119.145 299.784 118.656 299.773 118.163C299.775 117.289 299.448 116.445 298.854 115.791C298.515 115.426 298.1 115.136 297.638 114.939C297.175 114.742 296.675 114.644 296.17 114.651C295.28 114.653 294.422 114.973 293.755 115.549L292.888 116.316C292.738 116.45 292.563 116.554 292.372 116.621C292.181 116.688 291.978 116.718 291.775 116.707C291.572 116.697 291.373 116.647 291.191 116.561C291.008 116.475 290.844 116.354 290.71 116.205C290.437 115.907 290.297 115.516 290.318 115.117C290.339 114.719 290.521 114.344 290.823 114.076L291.69 113.319C292.91 112.219 294.511 111.613 296.17 111.623C297.106 111.624 298.032 111.817 298.887 112.189C299.742 112.561 300.508 113.104 301.136 113.783C302.255 114.978 302.871 116.542 302.86 118.163C302.859 119.077 302.663 119.981 302.284 120.817C301.905 121.652 301.353 122.402 300.661 123.017L295.396 127.669H301.332C301.536 127.669 301.739 127.709 301.928 127.786C302.116 127.864 302.287 127.977 302.43 128.12C302.574 128.263 302.686 128.432 302.762 128.618C302.837 128.804 302.874 129.003 302.87 129.203Z" fill="white"/>
<path d="M317.28 119.172C317.935 119.789 318.454 120.529 318.809 121.348C319.164 122.166 319.346 123.046 319.345 123.935C319.348 125.274 318.944 126.584 318.185 127.698C317.426 128.812 316.346 129.681 315.081 130.195C313.816 130.708 312.424 130.843 311.081 130.582C309.737 130.321 308.504 129.676 307.536 128.729C307.388 128.586 307.272 128.416 307.192 128.229C307.112 128.042 307.071 127.841 307.071 127.639C307.071 127.436 307.112 127.235 307.192 127.048C307.272 126.861 307.388 126.692 307.536 126.549C307.833 126.263 308.234 126.103 308.651 126.103C309.068 126.103 309.468 126.263 309.765 126.549C310.112 126.889 310.524 127.159 310.977 127.342C311.431 127.526 311.917 127.62 312.408 127.619C313.408 127.617 314.368 127.233 315.082 126.549C315.437 126.208 315.719 125.802 315.91 125.353C316.102 124.904 316.199 124.422 316.197 123.935C316.201 123.453 316.104 122.975 315.913 122.531C315.721 122.086 315.438 121.685 315.082 121.352C314.738 121.007 314.327 120.733 313.873 120.546C313.419 120.359 312.932 120.262 312.439 120.262C312.222 120.272 312.005 120.233 311.806 120.147C311.607 120.062 311.432 119.931 311.293 119.767C311.147 119.625 311.032 119.456 310.953 119.27C310.874 119.083 310.834 118.884 310.834 118.682C310.834 118.481 310.874 118.281 310.953 118.095C311.032 117.909 311.147 117.74 311.293 117.598L314.132 114.762H309.621C309.225 114.73 308.857 114.555 308.588 114.27C308.319 113.984 308.169 113.611 308.169 113.223C308.169 112.835 308.319 112.461 308.588 112.176C308.857 111.891 309.225 111.715 309.621 111.684H317.879C318.248 111.722 318.591 111.887 318.846 112.149C319.101 112.412 319.253 112.755 319.273 113.117C319.268 113.374 319.201 113.627 319.077 113.854C318.999 113.992 318.906 114.12 318.798 114.237L315.288 117.779C316.04 118.109 316.718 118.583 317.28 119.172Z" fill="white"/>
<path d="M338.628 125.631C338.628 125.829 338.587 126.026 338.509 126.209C338.43 126.392 338.315 126.558 338.17 126.698C338.024 126.837 337.852 126.946 337.663 127.019C337.474 127.092 337.272 127.128 337.069 127.124H336.821V129.203C336.821 129.604 336.658 129.989 336.368 130.273C336.078 130.557 335.684 130.717 335.273 130.717C334.862 130.717 334.469 130.557 334.178 130.273C333.888 129.989 333.725 129.604 333.725 129.203V127.124H324.95C324.604 127.136 324.265 127.021 324.001 126.801C323.84 126.682 323.705 126.532 323.605 126.36C323.505 126.189 323.442 125.999 323.419 125.803C323.395 125.607 323.413 125.409 323.471 125.219C323.528 125.03 323.624 124.854 323.753 124.702L334.076 112.168C334.076 112.168 334.076 112.168 334.127 112.118C334.162 112.086 334.19 112.049 334.21 112.007C334.265 111.996 334.316 111.967 334.354 111.926C334.354 111.926 334.437 111.926 334.458 111.845C334.51 111.812 334.571 111.795 334.633 111.795C334.633 111.734 334.685 111.714 334.736 111.714C334.788 111.714 334.819 111.714 334.912 111.654C335.005 111.593 334.994 111.654 335.015 111.654H335.49C335.537 111.668 335.587 111.668 335.634 111.654C335.634 111.654 335.748 111.654 335.8 111.714H335.913C335.965 111.775 336.027 111.795 336.047 111.825L336.192 111.906C336.192 111.906 336.285 111.906 336.285 111.956L336.388 112.067C336.419 112.102 336.446 112.139 336.47 112.178C336.515 112.216 336.553 112.26 336.584 112.31C336.589 112.353 336.612 112.393 336.646 112.421C336.646 112.481 336.646 112.501 336.698 112.582C336.749 112.663 336.698 112.663 336.698 112.693C336.709 112.746 336.709 112.801 336.698 112.854C336.698 112.915 336.698 112.935 336.698 112.996V124.097H336.976C337.19 124.083 337.404 124.112 337.606 124.183C337.807 124.254 337.991 124.365 338.146 124.51C338.301 124.654 338.424 124.828 338.507 125.021C338.59 125.214 338.631 125.421 338.628 125.631ZM333.725 117.406L328.181 124.127H333.725V117.406Z" fill="white"/>
<path d="M352.512 119.172C353.167 119.795 353.687 120.54 354.042 121.364C354.396 122.187 354.578 123.072 354.577 123.965C354.57 124.853 354.384 125.731 354.029 126.548C353.675 127.365 353.16 128.106 352.512 128.729C351.878 129.365 351.121 129.872 350.284 130.218C349.447 130.565 348.548 130.745 347.64 130.747H347.578C346.674 130.745 345.779 130.566 344.947 130.219C344.115 129.872 343.364 129.365 342.736 128.729C342.582 128.59 342.46 128.421 342.376 128.234C342.292 128.046 342.248 127.844 342.248 127.639C342.248 127.434 342.292 127.232 342.376 127.044C342.46 126.856 342.582 126.688 342.736 126.549C343.032 126.264 343.431 126.104 343.846 126.104C344.261 126.104 344.66 126.264 344.956 126.549C345.303 126.894 345.718 127.169 346.175 127.356C346.632 127.543 347.123 127.64 347.619 127.64C348.115 127.64 348.606 127.543 349.063 127.356C349.52 127.169 349.935 126.894 350.282 126.549C350.985 125.863 351.385 124.936 351.397 123.965C351.398 123.482 351.302 123.003 351.114 122.557C350.926 122.11 350.649 121.704 350.3 121.361C349.951 121.019 349.536 120.748 349.08 120.563C348.623 120.377 348.134 120.282 347.64 120.282C346.644 120.258 345.679 120.621 344.956 121.291C344.811 121.435 344.638 121.549 344.447 121.627C344.257 121.705 344.052 121.745 343.846 121.745C343.64 121.745 343.435 121.705 343.245 121.627C343.054 121.549 342.881 121.435 342.736 121.291C342.623 121.19 342.54 121.049 342.427 120.938C342.313 120.827 342.427 120.857 342.427 120.857C342.444 120.815 342.444 120.768 342.427 120.726C342.427 120.645 342.427 120.585 342.427 120.534C342.427 120.484 342.427 120.534 342.427 120.474C342.406 120.323 342.406 120.17 342.427 120.02L343.263 112.955C343.341 112.516 343.593 112.124 343.965 111.866C344.016 111.866 344.047 111.866 344.078 111.866C344.109 111.866 344.13 111.866 344.161 111.815C344.383 111.699 344.632 111.64 344.883 111.643H353.142C353.561 111.643 353.962 111.806 354.258 112.096C354.555 112.385 354.721 112.778 354.721 113.188C354.721 113.597 354.555 113.99 354.258 114.279C353.962 114.569 353.561 114.732 353.142 114.732H346.112L345.782 117.426C346.39 117.262 347.019 117.178 347.65 117.174C348.556 117.173 349.452 117.349 350.287 117.693C351.122 118.036 351.879 118.539 352.512 119.172Z" fill="white"/>
<path d="M310.302 88.3215L309.889 88.4224C309.901 88.376 309.926 88.3339 309.961 88.3013L310.302 88.3215Z" fill="#263238"/>
<path d="M322.184 379.87H321.998V379.739L322.184 379.87Z" fill="#DD6A57"/>
<path d="M101.751 93.2866C103.548 106.265 113.437 137.074 120.818 139.042C127.693 140.859 157.907 132.059 161.799 126.196C163.863 123.057 172.122 94.2352 168.436 95.9205C163.771 98.0903 129.551 115.004 128.178 114.661C125.205 113.934 119.414 102.49 114.397 96.0921C103.455 82.1858 100.915 87.2316 101.751 93.2866Z" fill="#774442"/>
<path d="M122.397 106.174L106.913 120.05C106.913 120.05 101.431 100.23 100.812 91.0563C100.193 81.883 107.863 82.9123 122.397 106.174Z" fill="#263238"/>
<path d="M63.4642 234.742C63.4642 234.742 48.4858 259.658 31.9384 248.345C15.3911 237.033 34.2817 214.76 34.2817 214.76L63.4642 234.742Z" fill="#FF98B9"/>
<path d="M33.6202 215.644L62.7983 235.677L182.247 69.4L153.069 49.3671L33.6202 215.644Z" fill="#FFC727"/>
<path opacity="0.1" d="M33.6202 215.644L62.7983 235.677L182.247 69.4L153.069 49.3671L33.6202 215.644Z" fill="black"/>
<path d="M30.5252 214.859L64.5945 238.25L69.3406 231.643L35.2713 208.252L30.5252 214.859Z" fill="#455A64"/>
<path d="M35.781 207.558L69.8503 230.949L74.5965 224.342L40.5272 200.951L35.781 207.558Z" fill="#455A64"/>
<path d="M153.076 49.3676L178.77 36.42L187.234 32.1108L186.027 41.3952L182.259 69.4602L176.323 71.5794C176.323 71.5794 176.437 65.5244 176.416 65.4538L170.481 67.5629C170.481 67.5629 170.594 61.5079 170.573 61.4373L164.71 63.5969C164.71 63.5969 164.71 57.5419 164.71 57.4309L158.847 59.5905C158.847 59.5905 158.847 53.5355 158.847 53.4144L153.076 55.5336C153.076 55.5336 153.076 49.4685 153.076 49.3676Z" fill="#EBEBEB"/>
<path d="M178.77 36.3796L187.234 32.0704L186.016 41.3548L178.77 36.3796Z" fill="#37474F"/>
<g opacity="0.1">
<path d="M74.1174 205.456C81.4948 194.779 88.9512 184.149 96.4869 173.566L119.114 141.848L141.948 110.271L153.448 94.538L165.051 78.8757L153.912 94.8609L142.681 110.775L120.043 142.494L97.1991 174.06C89.5603 184.563 81.8664 195.028 74.1174 205.456Z" fill="black"/>
<path d="M66.0449 200.824C73.4291 190.133 80.8856 179.503 88.4143 168.934L111.042 137.206L133.886 105.639L145.386 89.9059L156.978 74.2437L145.85 90.2188L134.609 106.133L111.981 137.862L89.1369 169.428C81.4912 179.924 73.7939 190.389 66.0449 200.824Z" fill="black"/>
<path d="M57.9727 196.192C65.35 185.508 72.8065 174.875 80.3421 164.292L102.97 132.574L125.814 101.007L137.313 85.2738L148.947 69.6014L137.819 85.5867L126.578 101.501L103.961 133.219L81.1163 164.796C73.4155 175.292 65.7457 185.777 57.9727 196.192Z" fill="black"/>
</g>
<path d="M167.239 93.8013C167.796 98.1105 170.811 104.206 170.16 107.375C170.03 108.16 169.644 108.883 169.06 109.438C168.477 109.992 167.726 110.348 166.919 110.453C166.919 110.453 169.52 112.965 168.447 115.741C167.9 117.174 165.071 117.567 165.071 117.567C165.631 118.168 166.01 118.908 166.166 119.706C166.323 120.503 166.251 121.328 165.959 122.088C165.081 124.006 162.387 124.107 162.387 124.107C162.387 124.107 163.337 126.993 161.799 128.678C158.702 132.079 141.071 126.448 140.472 119.242C140.193 115.882 144.415 117.487 144.415 117.487C144.415 117.487 138.913 113.743 140.007 110.17C141.102 106.598 146.459 108.999 146.459 108.999C146.459 108.999 141.164 105.326 142.681 101.733C144.199 98.1408 149.195 101.299 149.195 101.299C149.195 101.299 146.098 97.4545 147.956 94.9619C150.939 90.8445 156.421 98.9986 160.591 99.3114L164.813 93.761L167.239 93.8013Z" fill="#774442"/>
<path d="M168.953 100.351C168.777 96.2233 174.96 93.1756 175.384 89.25C175.951 83.8812 168.529 86.9491 164.813 93.8215L162.883 99.6545L168.953 100.351Z" fill="#774442"/>
<path d="M161.964 124.218C162.026 124.218 161.964 124.319 161.964 124.308C155.465 123.84 149.266 121.45 144.188 117.456C144.034 117.325 144.188 117.012 144.385 117.123C149.862 120.309 155.783 122.699 161.964 124.218Z" fill="#263238"/>
<path d="M165.154 117.628C165.216 117.628 165.154 117.759 165.154 117.759C157.978 117.174 151.254 114.095 146.201 109.08C146.036 108.898 146.067 108.565 146.273 108.757C149.855 112.017 159.321 116.296 165.154 117.628Z" fill="#263238"/>
<path d="M148.947 100.815C153.923 105.659 159.993 108.444 166.64 110.443C166.733 110.443 166.64 110.584 166.64 110.584C163.12 110.473 159.012 108.767 155.936 107.183C153.051 105.758 150.596 103.623 148.813 100.987C148.71 100.876 148.854 100.704 148.947 100.815Z" fill="#263238"/>
<path d="M173.649 406.654C171.286 407.4 103.806 406.543 101.256 404.918C100.224 404.312 99.8314 394.695 99.6352 383.059V382.696C99.6352 380.294 99.5527 377.822 99.5527 375.319C99.5527 374.976 99.5527 374.633 99.5527 374.31C99.4597 357.507 99.7385 340.079 99.7385 340.079L144.88 340.523L143.517 374.431L143.466 375.773L143.197 382.787V383.513C143.197 383.513 168.88 395.129 171.482 397.208C174.083 399.287 176.013 405.917 173.649 406.654Z" fill="#774442"/>
<path d="M173.65 406.654C171.286 407.4 103.806 406.543 101.256 404.918C100.224 404.312 99.8315 394.695 99.6353 383.059V382.696C99.6353 380.294 99.5527 377.822 99.5527 375.319C99.5527 374.976 99.5527 374.633 99.5527 374.31L143.517 374.431L143.466 375.773L143.197 382.787V383.513C143.197 383.513 168.88 395.129 171.482 397.208C174.083 399.287 176.013 405.917 173.65 406.654Z" fill="#EBEBEB"/>
<path d="M173.65 406.654C172.184 407.118 146.047 406.967 125.577 406.401C112.797 406.058 102.237 405.544 101.256 404.918C100.275 404.292 99.8419 394.967 99.6458 383.544C99.6458 383.382 99.6458 383.221 99.6458 383.059C99.6458 382.898 99.6458 382.807 99.6458 382.686L143.187 382.767V383.493C143.187 383.493 168.87 395.109 171.472 397.188C174.073 399.267 176.014 405.917 173.65 406.654Z" fill="#FFC727"/>
<path d="M172.917 404.09C161.562 403.667 115.646 403.081 104.363 403.465C104.281 403.465 104.281 403.535 104.363 403.535C115.625 404.191 161.541 404.464 172.917 404.272C173.154 404.262 173.154 404.1 172.917 404.09Z" fill="#263238"/>
<path d="M148.018 382.948C143.548 382.08 138.067 382.676 134.599 385.754C134.464 385.875 134.599 386.056 134.784 386.016C139.078 384.721 143.5 383.878 147.977 383.503C148.044 383.496 148.107 383.467 148.155 383.419C148.202 383.371 148.231 383.309 148.236 383.243C148.241 383.176 148.221 383.111 148.182 383.057C148.142 383.003 148.084 382.965 148.018 382.948Z" fill="#263238"/>
<path d="M151.218 384.896C146.759 384.018 141.277 384.623 137.798 387.701C137.664 387.812 137.799 388.004 137.984 387.964C142.28 386.664 146.707 385.822 151.187 385.451C151.254 385.443 151.316 385.412 151.362 385.363C151.408 385.315 151.435 385.252 151.439 385.186C151.443 385.12 151.423 385.055 151.382 385.002C151.342 384.949 151.284 384.911 151.218 384.896Z" fill="#263238"/>
<path d="M154.429 386.844C149.959 385.966 144.477 386.571 141.009 389.639C140.875 389.76 141.009 389.942 141.195 389.901C145.489 388.611 149.911 387.768 154.387 387.389C154.461 387.394 154.534 387.37 154.59 387.323C154.647 387.276 154.681 387.209 154.687 387.136C154.692 387.064 154.668 386.993 154.62 386.938C154.571 386.883 154.502 386.849 154.429 386.844Z" fill="#263238"/>
<path d="M153.964 373.482C152.24 371.091 148.947 372.11 147.058 373.624C143.866 376.279 141.442 379.707 140.028 383.564C140.022 383.58 140.019 383.598 140.021 383.616C140.023 383.634 140.029 383.651 140.04 383.666C140.05 383.681 140.063 383.693 140.079 383.702C140.095 383.71 140.113 383.715 140.132 383.715C140.132 384.048 140.441 384.412 140.833 384.27C144.539 382.989 148.679 382.05 151.879 379.689C153.747 378.306 155.595 375.743 153.964 373.482ZM146.046 381.192C144.24 381.868 142.403 382.454 140.617 383.211C141.919 381.246 143.321 379.346 144.818 377.519C145.56 376.638 146.364 375.809 147.223 375.036C148.565 373.876 153.871 371.424 153.025 376.207C152.591 378.821 148.204 380.385 146.046 381.192Z" fill="#263238"/>
<path d="M128.673 382.272C132.338 383.857 136.58 383.836 140.503 384.291C140.906 384.291 141.112 383.917 141.04 383.584C141.057 383.579 141.073 383.57 141.086 383.558C141.099 383.546 141.11 383.531 141.117 383.515C141.124 383.498 141.127 383.481 141.126 383.463C141.125 383.446 141.12 383.428 141.112 383.413C138.827 379.984 135.663 377.2 131.935 375.339C129.736 374.33 126.299 374.037 125.174 376.752C124.049 379.467 126.526 381.354 128.673 382.272ZM126.691 379.124C124.73 374.653 130.469 375.854 132.059 376.681C133.074 377.243 134.05 377.87 134.98 378.558C136.884 379.999 138.71 381.535 140.451 383.16C138.542 382.837 136.611 382.686 134.691 382.434C132.431 382.131 127.765 381.556 126.691 379.124Z" fill="#263238"/>
<path d="M125.577 406.401C112.797 406.058 102.237 405.544 101.256 404.918C100.275 404.292 99.8419 394.967 99.6458 383.544C104.89 388.115 117.907 399.468 125.577 406.401Z" fill="#263238"/>
<path d="M86.1538 150.032C86.1538 150.032 96.3011 261.465 97.9321 270.012C98.314 271.95 98.5515 282.486 98.7063 296.029C99.0573 325.577 98.7063 383.14 98.7063 383.14H146.274C146.274 383.14 145.004 286.532 142.898 269.538C140.792 252.544 127.331 150.032 127.331 150.032H86.1538Z" fill="#37474F"/>
<path d="M144.126 375.036C136.704 374.885 138.831 374.835 131.409 374.764C127.775 374.764 103.898 374.522 100.513 375.067C100.497 375.072 100.483 375.083 100.474 375.096C100.464 375.11 100.459 375.126 100.459 375.142C100.459 375.159 100.464 375.175 100.474 375.188C100.483 375.202 100.497 375.212 100.513 375.218C103.909 375.773 127.775 375.561 131.409 375.531C138.831 375.46 136.704 375.4 144.126 375.248C144.26 375.248 144.26 375.046 144.126 375.036Z" fill="#263238"/>
<path d="M107.893 317.978C107.845 311.25 107.794 304.506 107.739 297.744C107.687 291.205 107.739 284.625 107.377 278.146C106.737 264.926 103.991 251.908 102.04 238.869C100.089 225.831 98.4687 212.631 96.9926 199.512C95.3409 184.778 93.8957 170.024 92.3267 155.28C92.3267 155.189 92.1615 155.189 92.1719 155.28C94.4119 181.599 96.91 207.918 100.637 234.086C101.566 240.598 102.598 247.094 103.733 253.573C104.838 260.143 105.942 266.692 106.469 273.342C106.995 279.993 107.078 286.361 107.14 292.87C107.216 299.598 107.284 306.325 107.346 313.053C107.501 328.019 107.501 355.337 107.646 370.313C107.646 370.596 108.11 370.586 108.11 370.313C107.945 357.033 107.997 331.339 107.893 317.978Z" fill="#263238"/>
<path d="M76.1199 150.032C76.1199 150.032 96.3009 261.465 97.9319 270.012C98.3138 271.95 98.5512 282.486 98.7061 296.029L121.416 149.992L76.1199 150.032Z" fill="#263238"/>
<path d="M117.669 410.589C115.254 411.165 48.011 405.644 45.5852 403.838C44.6561 403.172 44.9039 393.545 45.5852 381.919C45.5852 381.798 45.5852 381.677 45.5852 381.556C45.7194 379.164 45.8639 376.691 46.0394 374.199C46.0394 373.856 46.0394 373.513 46.1013 373.19C47.2265 356.427 48.7646 339.06 48.7646 339.06L93.7512 342.632L89.9421 376.348L89.7976 377.691L89.0131 384.674L88.9408 385.39C88.9408 385.39 113.715 398.762 116.162 401.012C118.608 403.263 120.043 410.014 117.669 410.589Z" fill="#774442"/>
<path d="M117.669 410.589C115.254 411.165 48.011 405.644 45.5852 403.838C44.6561 403.172 44.9039 393.545 45.5852 381.919C45.5852 381.798 45.5852 381.677 45.5852 381.556C45.7194 379.164 45.8639 376.691 46.0394 374.199C46.0394 373.856 46.0394 373.513 46.1013 373.19L89.9421 376.348L89.7976 377.69L89.0131 384.674L88.9408 385.39C88.9408 385.39 113.715 398.762 116.162 401.012C118.608 403.263 120.043 410.014 117.669 410.589Z" fill="#EBEBEB"/>
<path d="M117.669 410.589C115.254 411.165 48.011 405.644 45.5852 403.838C44.6561 403.172 44.9039 393.545 45.5852 381.919C45.5852 381.798 45.5852 381.677 45.5852 381.556L89.0131 384.654L88.9408 385.37C88.9408 385.37 113.715 398.742 116.162 400.992C118.608 403.243 120.043 410.014 117.669 410.589Z" fill="#FFC727"/>
<path d="M117.132 407.976C105.777 406.775 60.0785 402.93 48.7958 402.607C48.7028 402.607 48.7028 402.667 48.7958 402.678C59.9753 404.111 105.757 407.562 117.112 408.157C117.36 408.167 117.37 407.996 117.132 407.976Z" fill="#263238"/>
<path d="M93.8237 385.168C89.4365 383.988 83.9241 384.21 80.2389 387.035C80.1047 387.146 80.2389 387.338 80.4144 387.308C84.7926 386.313 89.2672 385.778 93.7617 385.713C93.8256 385.705 93.8848 385.676 93.9299 385.631C93.9749 385.586 94.0033 385.527 94.0104 385.465C94.0175 385.402 94.003 385.339 93.9692 385.285C93.9353 385.231 93.8841 385.19 93.8237 385.168Z" fill="#263238"/>
<path d="M96.8789 387.328C92.4917 386.147 86.9794 386.319 83.3045 389.195C83.16 389.306 83.3045 389.498 83.4696 389.468C87.8482 388.475 92.3228 387.944 96.817 387.883C96.8858 387.88 96.9512 387.853 97.0014 387.807C97.0517 387.761 97.0834 387.698 97.0908 387.632C97.0983 387.565 97.0811 387.497 97.0422 387.442C97.0033 387.386 96.9454 387.346 96.8789 387.328Z" fill="#263238"/>
<path d="M99.9346 389.488C95.5474 388.307 90.035 388.529 86.3601 391.355C86.2156 391.466 86.3601 391.668 86.5253 391.627C90.904 390.636 95.3785 390.105 99.8726 390.043C99.9415 390.04 100.007 390.013 100.057 389.966C100.107 389.92 100.139 389.858 100.146 389.791C100.154 389.724 100.137 389.657 100.098 389.601C100.059 389.546 100.001 389.505 99.9346 389.488Z" fill="#263238"/>
<path d="M100.43 376.136C98.8817 373.624 95.5268 374.421 93.5345 375.793C90.1561 378.218 87.4896 381.468 85.8027 385.219C85.7945 385.236 85.7904 385.255 85.7908 385.273C85.7912 385.292 85.7961 385.311 85.8052 385.327C85.8142 385.344 85.8271 385.358 85.8428 385.369C85.8585 385.38 85.8766 385.388 85.8956 385.39C85.8846 385.475 85.8941 385.561 85.9233 385.642C85.9526 385.722 86.0008 385.795 86.0641 385.854C86.1275 385.913 86.204 385.957 86.2877 385.981C86.3714 386.006 86.4599 386.011 86.546 385.996C90.3447 384.987 94.5358 384.321 97.901 382.181C99.8727 380.93 101.906 378.528 100.43 376.136ZM91.9757 383.281C90.128 383.826 88.2492 384.29 86.4221 384.906C87.8703 383.026 89.4173 381.22 91.057 379.497C91.8619 378.673 92.7242 377.904 93.6377 377.196C95.0622 376.126 100.533 374.047 99.3359 378.76C98.6855 381.364 94.2364 382.615 91.9861 383.281H91.9757Z" fill="#263238"/>
<path d="M74.6232 383.15C78.1742 384.987 82.4066 385.259 86.2776 385.945C86.6802 386.016 86.9176 385.623 86.8763 385.29C86.8948 385.286 86.9121 385.278 86.9267 385.266C86.9412 385.255 86.9526 385.24 86.9598 385.223C86.967 385.206 86.9697 385.187 86.9677 385.169C86.9658 385.151 86.9592 385.133 86.9486 385.118C84.9237 381.53 81.9688 378.527 78.3807 376.409C76.3161 375.218 72.858 374.724 71.547 377.357C70.236 379.991 72.5587 382.08 74.6232 383.15ZM72.8787 379.88C71.2477 375.279 76.8942 376.853 78.4117 377.862C79.3834 378.472 80.3112 379.146 81.1885 379.88C82.9981 381.448 84.721 383.109 86.3499 384.856C84.4711 384.401 82.5614 384.109 80.662 383.725C78.3084 383.261 73.7251 382.413 72.8271 379.88H72.8787Z" fill="#263238"/>
<path d="M90.8712 384.068L43.3865 382.101C43.3865 382.101 55.588 277.47 55.8254 271.203C56.4551 254.945 67.5005 149.992 67.5005 149.992H125.545C125.545 149.992 121.881 174.212 115.615 189.582C111.427 191.028 107.381 192.841 103.527 195.001C103.527 195.001 100.058 268.347 99.852 277.006C99.3978 294.111 90.8712 384.068 90.8712 384.068Z" fill="#37474F"/>
<path d="M89.6015 375.551C82.2 375.097 84.3265 375.127 76.9148 374.744C73.2915 374.562 49.4459 373.371 46.0291 373.785C45.9568 373.785 45.9465 373.916 46.0291 373.926C49.4046 374.623 73.2605 375.4 76.8941 375.521C84.3162 375.753 82.1794 375.612 89.6015 375.763C89.6185 375.768 89.6365 375.769 89.654 375.766C89.6716 375.764 89.6882 375.757 89.7026 375.746C89.7169 375.736 89.7286 375.723 89.7366 375.707C89.7447 375.692 89.7489 375.674 89.7489 375.657C89.7489 375.64 89.7447 375.622 89.7366 375.607C89.7286 375.591 89.7169 375.578 89.7026 375.568C89.6882 375.557 89.6716 375.55 89.654 375.548C89.6365 375.545 89.6185 375.546 89.6015 375.551Z" fill="#263238"/>
<path d="M71.7535 156.218C69.6064 182.649 67.387 209.079 64.9198 235.489C62.4527 261.899 52.5325 353.016 50.2202 367.69C50.2202 367.791 50.3544 367.831 50.3751 367.69C55.1648 341.593 57.952 306.524 60.9559 280.175C63.9598 253.825 66.396 227.415 68.5741 201.005C69.8128 186.059 70.9277 171.104 72.0942 156.158C72.1148 155.996 71.7741 156.006 71.7535 156.218Z" fill="#263238"/>
<path d="M117.69 188.532C112.786 190.284 108.047 192.448 103.527 195.001C103.488 195.018 103.459 195.05 103.444 195.089C103.43 195.127 103.432 195.17 103.449 195.208C103.467 195.245 103.499 195.274 103.539 195.288C103.579 195.303 103.623 195.301 103.661 195.283C108.451 193.265 113.333 191.358 117.999 189.087C118.075 189.047 118.13 188.979 118.155 188.899C118.179 188.818 118.169 188.732 118.128 188.658C118.087 188.585 118.018 188.53 117.936 188.506C117.853 188.483 117.765 188.492 117.69 188.532Z" fill="#263238"/>
<path d="M119.217 156.41C119.217 156.249 118.908 156.208 118.908 156.41C118.91 161.634 118.645 166.854 118.113 172.052C117.886 174.464 115.904 187.795 111.62 186.826C110.908 186.655 110.588 185.969 110.433 184.919C110.448 183.539 110.639 182.166 111 180.832C111.475 178.037 111.857 175.241 112.095 172.426C112.597 167.176 112.542 161.89 111.93 156.652C111.921 156.622 111.903 156.596 111.878 156.577C111.853 156.559 111.822 156.548 111.79 156.548C111.759 156.548 111.728 156.559 111.703 156.577C111.677 156.596 111.659 156.622 111.651 156.652C111.776 163.926 111.341 171.2 110.35 178.41C109.813 181.882 108.028 187.099 111.733 187.634C115.439 188.169 117.927 179.439 118.412 177.048C119.594 170.232 119.865 163.294 119.217 156.41Z" fill="#263238"/>
<path d="M111.785 187.149C111.408 188.051 111.088 188.975 110.825 189.914C110.547 190.64 110.414 191.411 110.433 192.185C110.433 192.326 110.639 192.347 110.722 192.246C111.176 191.563 111.524 190.818 111.754 190.036C112.074 189.178 112.415 188.33 112.714 187.472C112.758 187.352 112.751 187.219 112.695 187.104C112.639 186.988 112.538 186.9 112.415 186.857C112.292 186.814 112.156 186.821 112.038 186.876C111.92 186.93 111.829 187.029 111.785 187.149Z" fill="#263238"/>
<path d="M63.9597 169.63C64.1146 169.802 132.265 168.147 132.874 167.44C133.711 166.431 115.202 98.0398 110.257 87.8876C108.193 83.5683 97.1887 82.4986 92.7086 86.3032C81.3536 95.8398 72.3831 127.841 70.3598 137.468C66.9637 153.373 63.3713 169.065 63.9597 169.63Z" fill="#FFC727"/>
<path d="M100.368 107.889C100.667 108.575 100.861 109.299 100.946 110.039C100.033 108.859 99.4465 107.468 99.243 106.002C99.7077 106.576 100.087 107.211 100.368 107.889ZM105.808 133.744C105.899 134.483 106.093 135.207 106.386 135.894C106.664 136.586 107.043 137.236 107.512 137.821C107.422 137.085 107.227 136.365 106.933 135.682C106.652 134.988 106.273 134.336 105.808 133.744ZM112.188 163.959C112.278 164.695 112.472 165.415 112.766 166.098C113.043 166.794 113.422 167.446 113.891 168.036C113.692 166.568 113.105 165.177 112.188 163.999V163.959ZM82.3963 126.175C82.4764 126.916 82.6713 127.641 82.9744 128.325C83.2481 129.017 83.6237 129.666 84.0892 130.252C83.8875 128.787 83.3046 127.398 82.3963 126.216V126.175ZM71.6296 145.249C71.8314 146.714 72.4143 148.104 73.3226 149.285C73.2411 148.546 73.0498 147.822 72.7548 147.136C72.47 146.459 72.0914 145.824 71.6296 145.249ZM97.9114 157.228C98.1131 158.693 98.696 160.082 99.6043 161.264C99.5243 160.526 99.3294 159.805 99.0263 159.125C98.7492 158.444 98.3737 157.805 97.9114 157.228ZM119.589 122.714C119.675 123.454 119.87 124.178 120.167 124.864C120.441 125.556 120.817 126.205 121.282 126.791C121.201 126.051 121.009 125.327 120.714 124.642C120.446 123.953 120.081 123.305 119.63 122.714H119.589ZM90.5409 117.961C91.2947 117.878 92.032 117.687 92.7294 117.396C93.4406 117.128 94.1083 116.761 94.7113 116.306C93.9534 116.384 93.212 116.575 92.5126 116.871C91.8191 117.142 91.169 117.509 90.5822 117.961H90.5409ZM83.315 141.989C84.0714 141.903 84.8116 141.712 85.5138 141.424C86.2232 141.149 86.8903 140.778 87.4957 140.324C85.9958 140.523 84.5737 141.096 83.3666 141.989H83.315ZM85.3796 169.237H86.5873L87.0519 169.065C87.7613 168.79 88.4283 168.42 89.0338 167.965C87.7354 168.142 86.4901 168.586 85.3796 169.267V169.237ZM111.785 147.429C113.286 147.234 114.709 146.66 115.914 145.763C114.413 145.958 112.99 146.532 111.785 147.429ZM91.4803 96.9701C92.9813 96.7753 94.4044 96.2014 95.6094 95.305C94.1084 95.4998 92.6853 96.0737 91.4803 96.9701ZM85.235 100.24C84.7653 100.825 84.3798 101.47 84.0892 102.157C83.7828 102.838 83.5811 103.559 83.4905 104.297C83.9675 103.717 84.3537 103.07 84.6363 102.379C84.9464 101.702 85.1583 100.985 85.266 100.25L85.235 100.24ZM74.7471 130.878C74.2701 131.458 73.8839 132.104 73.6013 132.796C73.2963 133.477 73.0912 134.197 72.9922 134.935C73.4649 134.352 73.8507 133.706 74.1381 133.018C74.4507 132.34 74.666 131.623 74.7781 130.888L74.7471 130.878ZM74.2826 158.842C73.8151 159.429 73.4297 160.074 73.1368 160.76C72.8375 161.442 72.636 162.162 72.538 162.899C73.0151 162.319 73.4013 161.673 73.6839 160.982C73.9952 160.304 74.2072 159.588 74.3136 158.852L74.2826 158.842ZM108.461 119.172C107.994 119.76 107.611 120.409 107.326 121.099C107.016 121.779 106.811 122.5 106.717 123.239C107.189 122.656 107.575 122.01 107.863 121.321C108.168 120.637 108.369 119.913 108.461 119.172ZM97.4469 143.856C96.5148 145.03 95.9133 146.421 95.7023 147.893C96.1676 147.305 96.5528 146.66 96.8482 145.975C97.1456 145.299 97.3471 144.586 97.4469 143.856ZM123.894 155.229C123.417 155.809 123.031 156.456 122.748 157.147C122.443 157.828 122.238 158.549 122.139 159.286C122.616 158.706 123.002 158.06 123.285 157.369C123.588 156.687 123.793 155.967 123.894 155.229ZM108.162 97.7068C107.692 98.2897 107.309 98.9354 107.026 99.6242C106.717 100.304 106.511 101.025 106.417 101.764C107.349 100.59 107.951 99.1984 108.162 97.727V97.7068ZM116.42 112.663C115.822 112.204 115.162 111.827 114.459 111.543C113.763 111.243 113.025 111.046 112.27 110.957C112.865 111.421 113.526 111.799 114.232 112.077C114.943 112.355 115.69 112.535 116.451 112.612L116.42 112.663ZM87.1138 155.199C86.5174 154.737 85.8571 154.36 85.1525 154.079C84.4545 153.783 83.7181 153.583 82.964 153.484C84.167 154.392 85.589 154.983 87.0931 155.199H87.1138ZM124.018 137.973C122.817 137.061 121.394 136.473 119.889 136.267C120.49 136.722 121.149 137.099 121.85 137.387C122.542 137.678 123.271 137.875 124.018 137.973ZM77.4723 113.339C77.9879 113.693 78.5418 113.991 79.124 114.227C79.8211 114.525 80.5579 114.726 81.3124 114.822C80.7175 114.358 80.0568 113.981 79.3511 113.702C78.7685 113.456 78.1589 113.277 77.5343 113.167C77.5091 113.223 77.4883 113.28 77.4723 113.339ZM108.214 156.097C107.617 155.635 106.957 155.258 106.252 154.977C105.556 154.677 104.819 154.476 104.064 154.382C104.657 154.848 105.318 155.226 106.025 155.502C106.722 155.8 107.459 156.001 108.214 156.097ZM99.1914 128.426C98.5951 127.964 97.9347 127.587 97.2301 127.306C96.5337 127.005 95.7966 126.805 95.0417 126.71C95.635 127.177 96.296 127.554 97.003 127.83C97.7002 128.129 98.4369 128.329 99.1914 128.426Z" fill="white"/>
<path d="M106.789 97.6159C102.887 98.2214 95.9502 91.4701 93.7101 86.6463C93.5553 86.3132 94.3192 82.9931 95.0418 78.9261C95.4753 76.4537 95.8985 73.6885 96.074 71.1353C96.074 70.6106 97.8599 71.7106 97.8599 71.7106L101.163 72.7197L112.116 76.1913C110.94 79.3094 110.156 82.5559 109.783 85.8591C109.754 86.1949 109.754 86.5325 109.783 86.8683C109.783 86.9187 109.783 86.9793 109.783 87.0499C110.02 89.1389 110.557 97.0306 106.789 97.6159Z" fill="#774442"/>
<path d="M109.834 86.9491C109.834 86.9995 109.834 87.0601 109.834 87.1307C109.274 87.1751 108.712 87.1751 108.152 87.1307C97.1579 86.1216 96.7966 72.296 96.7966 72.296L101.132 72.8005L112.085 76.2721C110.909 79.3902 110.125 82.6367 109.752 85.9399C109.75 86.278 109.778 86.6156 109.834 86.9491Z" fill="#263238"/>
<path d="M94.6595 53.9593C92.7497 59.6107 95.4337 76.0904 99.4802 79.8445C105.354 85.2839 115.15 86.0105 119.93 79.0675C124.554 72.3464 120.673 50.9218 116.131 47.4906C109.452 42.475 97.4776 45.6337 94.6595 53.9593Z" fill="#774442"/>
<path d="M110.939 64.9895C110.939 64.9895 110.856 65.0601 110.867 65.1005C111.083 66.2106 111.135 67.5124 110.165 68.0271C110.165 68.0271 110.165 68.1078 110.165 68.0876C111.414 67.7042 111.321 66.0088 110.939 64.9895Z" fill="#263238"/>
<path d="M109.721 63.9804C107.873 64.1217 108.296 67.7244 110.01 67.6033C111.723 67.4822 111.29 63.8694 109.721 63.9804Z" fill="#263238"/>
<path d="M117.401 64.0612C117.401 64.0612 117.494 64.0612 117.494 64.1419C117.597 65.2621 117.896 66.5336 118.97 66.7859V66.8566C117.69 66.8162 117.308 65.1309 117.401 64.0612Z" fill="#263238"/>
<path d="M118.278 62.7795C120.105 62.4364 120.673 66.0189 118.98 66.3418C117.287 66.6648 116.761 63.062 118.278 62.7795Z" fill="#263238"/>
<path d="M108.1 62.4969C108.566 62.3027 109.021 62.0837 109.463 61.8409C109.978 61.6812 110.425 61.3581 110.732 60.9226C110.804 60.7682 110.821 60.5948 110.779 60.4301C110.738 60.2654 110.642 60.119 110.505 60.0143C110.207 59.8411 109.866 59.7497 109.519 59.7497C109.172 59.7497 108.832 59.8411 108.534 60.0143C107.875 60.275 107.34 60.7686 107.037 61.3969C106.968 61.5448 106.946 61.7092 106.974 61.8693C107.001 62.0295 107.077 62.178 107.191 62.296C107.305 62.414 107.452 62.4961 107.614 62.5319C107.776 62.5677 107.945 62.5555 108.1 62.4969Z" fill="#263238"/>
<path d="M119.496 60.8015C118.988 60.7784 118.481 60.7245 117.979 60.6401C117.437 60.6447 116.91 60.4705 116.482 60.1456C116.365 60.0189 116.295 59.8572 116.284 59.6868C116.273 59.5165 116.321 59.3474 116.42 59.207C116.653 58.957 116.95 58.7726 117.28 58.6732C117.611 58.5738 117.963 58.563 118.299 58.6419C119.008 58.6927 119.671 59.0025 120.157 59.5098C120.245 59.6307 120.298 59.7727 120.31 59.9207C120.322 60.0687 120.292 60.2171 120.224 60.3499C120.156 60.4827 120.052 60.5949 119.924 60.6744C119.796 60.754 119.648 60.7979 119.496 60.8015Z" fill="#263238"/>
<path d="M110.608 75.1014C110.918 75.3335 111.228 75.6565 111.641 75.6464C112.062 75.5912 112.466 75.4502 112.828 75.2326C112.828 75.2326 112.91 75.2326 112.89 75.2831C112.752 75.5212 112.55 75.7184 112.306 75.8534C112.063 75.9885 111.786 76.0564 111.506 76.05C111.263 76.0195 111.035 75.9187 110.851 75.7604C110.667 75.6022 110.536 75.3938 110.474 75.162C110.466 75.1446 110.465 75.1247 110.472 75.1067C110.479 75.0887 110.492 75.0741 110.51 75.0661C110.528 75.0581 110.548 75.0573 110.567 75.0639C110.585 75.0705 110.6 75.084 110.608 75.1014Z" fill="#263238"/>
<path d="M111.424 71.6197C111.764 72.0292 112.187 72.3653 112.667 72.6068C113.147 72.8482 113.672 72.9898 114.211 73.0225C114.681 73.0581 115.154 73.0275 115.615 72.9317C115.707 72.9222 115.797 72.9019 115.883 72.8711L116.131 72.8005C116.19 72.7827 116.241 72.7463 116.277 72.697C116.312 72.6476 116.33 72.5882 116.327 72.528C116.332 72.4911 116.332 72.4538 116.327 72.417V72.3161C116.255 71.4583 116.017 70.1564 116.017 70.1564C116.358 70.2775 118.082 70.8225 117.999 70.3684C117.448 66.5046 116.489 62.7069 115.14 59.0354C115.133 59.0152 115.12 58.9976 115.102 58.9852C115.085 58.9727 115.064 58.966 115.042 58.966C115.02 58.966 114.999 58.9727 114.981 58.9852C114.964 58.9976 114.951 59.0152 114.944 59.0354C115.429 62.6079 116.565 66.0996 117.122 69.6519C116.507 69.4562 115.868 69.3441 115.223 69.3188C115.099 69.3693 115.728 71.8216 115.728 72.2051C115.023 72.3525 114.294 72.3605 113.585 72.2288C112.876 72.0971 112.201 71.8283 111.599 71.4381C111.424 71.4583 111.341 71.539 111.424 71.6197Z" fill="#263238"/>
<path d="M115.047 72.5482C114.637 73.2161 114.058 73.7689 113.364 74.1528C112.984 74.3587 112.545 74.4367 112.115 74.3748C111.176 74.2436 111.083 73.4262 111.145 72.7097C111.19 72.3264 111.283 71.95 111.424 71.5895C112.496 72.2792 113.765 72.6151 115.047 72.5482Z" fill="#263238"/>
<path d="M113.364 74.1527C112.984 74.3586 112.545 74.4366 112.115 74.3748C111.176 74.2436 111.083 73.4261 111.145 72.7096C111.627 72.6724 112.107 72.7944 112.51 73.056C112.912 73.3177 113.213 73.7039 113.364 74.1527Z" fill="#FF98B9"/>
<path d="M119.424 54.7364C114.025 58.6822 106.19 53.3639 106.19 53.3639C105.766 54.5693 104.956 55.6086 103.879 56.3269C102.801 57.0452 101.516 57.4041 100.213 57.3501C100.213 57.3501 99.5113 66.584 97.0339 66.6749C93.2557 66.8061 91.5525 54.3125 92.6467 51.7997C93.7409 49.2869 96.91 48.53 96.91 48.53C97.1981 47.0213 98.0615 45.6759 99.3255 44.7658C101.813 42.7475 110.835 44.9676 110.835 44.9676C111.293 43.7848 112.028 42.7236 112.983 41.8695C113.212 41.6577 113.483 41.4934 113.779 41.3865C114.075 41.2796 114.39 41.2323 114.705 41.2473C115.021 41.2624 115.33 41.3396 115.614 41.4743C115.898 41.6089 116.151 41.7983 116.358 42.031C115.916 42.7288 115.641 43.5154 115.553 44.3319C115.223 47.0465 117.463 46.9557 117.339 44.5135C117.333 43.5967 116.984 42.7136 116.358 42.031C117.39 40.3961 119.186 39.8007 120.332 40.608C122.387 42.0814 123.914 51.4566 119.424 54.7364Z" fill="#263238"/>
<path d="M97.932 67.4217C97.932 67.4217 94.1538 62.1033 91.6867 63.385C89.2195 64.6666 92.048 72.407 94.9384 73.4767C95.2991 73.6371 95.6894 73.7247 96.0857 73.734C96.4819 73.7434 96.876 73.6743 97.2443 73.5311C97.6126 73.3878 97.9475 73.1733 98.2289 72.9003C98.5102 72.6274 98.7323 72.3017 98.8817 71.9427L97.932 67.4217Z" fill="#774442"/>
<path d="M92.5538 65.6051C92.5022 65.6051 92.5022 65.6657 92.5538 65.6858C94.6184 66.4932 95.6507 68.3299 96.3939 70.2372C96.2741 70.0399 96.1124 69.8701 95.9197 69.7391C95.727 69.6081 95.5078 69.519 95.2769 69.4779C95.046 69.4368 94.8088 69.4445 94.5812 69.5007C94.3537 69.5568 94.1411 69.66 93.9577 69.8032C93.9061 69.8032 93.9577 69.9143 94.0197 69.9042C94.3756 69.7942 94.7577 69.7954 95.1129 69.9075C95.4681 70.0196 95.7788 70.2372 96.0017 70.5298C96.3768 71.0187 96.6953 71.5467 96.9514 72.1042C97.0443 72.2858 97.3746 72.195 97.3126 71.983C97.3333 69.4097 95.3307 65.8675 92.5538 65.6051Z" fill="#263238"/>
<path d="M109.999 221.037L83.5525 194.062L131.306 173.485L157.753 200.46L109.999 221.037Z" fill="#EBEBEB"/>
<path d="M111.816 222.884L85.3589 195.909L133.112 175.332L159.569 202.307L111.816 222.884Z" fill="#C7C7C7"/>
<path d="M135.92 178.198C135.525 178.394 135.095 178.511 134.654 178.544C134.213 178.577 133.77 178.525 133.349 178.39C132.957 178.269 133.236 177.875 133.618 178.006C134.167 178.172 134.758 178.147 135.29 177.936L135.548 177.815C135.832 177.681 136.077 177.48 136.26 177.229C136.332 177.114 136.365 176.98 136.353 176.846C136.353 176.846 136.353 176.846 136.353 176.795V176.735C136.306 176.661 136.238 176.601 136.157 176.563C136 176.485 135.827 176.444 135.651 176.442C135.435 176.443 135.22 176.47 135.011 176.523C134.908 176.523 134.805 176.523 134.691 176.594H134.629H134.526H134.464L134.093 176.21C134.423 176.075 134.77 175.984 135.125 175.938C135.419 175.882 135.721 175.889 136.012 175.958C136.302 176.028 136.574 176.159 136.808 176.341C136.956 176.493 137.04 176.696 137.04 176.906C137.04 177.117 136.956 177.319 136.808 177.471C136.585 177.789 136.278 178.04 135.92 178.198Z" fill="#A6A6A6"/>
<path d="M137.995 180.307C137.196 180.705 136.268 180.778 135.414 180.509C135.022 180.378 135.301 179.984 135.682 180.116C136.235 180.281 136.829 180.256 137.365 180.045C137.453 180.015 137.536 179.974 137.613 179.924C137.904 179.796 138.153 179.594 138.335 179.338C138.407 179.223 138.44 179.089 138.428 178.955C138.428 178.955 138.428 178.955 138.428 178.905C138.378 178.827 138.306 178.764 138.222 178.723C138.066 178.644 137.892 178.606 137.716 178.612C137.504 178.604 137.291 178.627 137.086 178.682C136.983 178.682 136.88 178.733 136.766 178.753H136.704H136.601C136.601 178.753 136.601 178.753 136.539 178.753L136.157 178.37C136.488 178.235 136.835 178.143 137.19 178.097C137.485 178.04 137.789 178.046 138.082 178.116C138.374 178.186 138.648 178.317 138.883 178.501C139.029 178.654 139.111 178.856 139.111 179.066C139.111 179.276 139.029 179.478 138.883 179.631C138.651 179.927 138.345 180.16 137.995 180.307Z" fill="#A6A6A6"/>
<path d="M140.059 182.426C139.261 182.816 138.339 182.885 137.489 182.618C137.097 182.487 137.376 182.104 137.757 182.225C138.306 182.388 138.895 182.367 139.43 182.164L139.688 182.043C139.975 181.909 140.22 181.704 140.4 181.448C140.48 181.34 140.514 181.206 140.493 181.074L140.441 181.014C140.4 180.934 140.33 180.873 140.245 180.842C140.09 180.76 139.916 180.718 139.739 180.721C139.527 180.713 139.315 180.737 139.11 180.792L138.79 180.872H138.717H138.625H138.552L138.181 180.489C138.511 180.354 138.858 180.262 139.213 180.216C139.507 180.161 139.809 180.168 140.1 180.237C140.39 180.307 140.662 180.438 140.896 180.62C141.048 180.773 141.133 180.977 141.133 181.19C141.133 181.403 141.048 181.608 140.896 181.76C140.674 182.043 140.387 182.271 140.059 182.426Z" fill="#A6A6A6"/>
<path d="M142.134 184.536C141.333 184.93 140.406 184.999 139.553 184.727C139.161 184.606 139.44 184.213 139.822 184.344C140.374 184.509 140.968 184.484 141.504 184.273L141.762 184.152C142.049 184.018 142.295 183.813 142.475 183.557C142.545 183.445 142.577 183.314 142.568 183.183C142.565 183.167 142.565 183.15 142.568 183.133V183.072C142.52 182.998 142.452 182.938 142.371 182.901C142.211 182.823 142.034 182.781 141.855 182.78C141.643 182.78 141.431 182.808 141.226 182.86C141.117 182.876 141.01 182.899 140.906 182.931H140.844C140.81 182.921 140.774 182.921 140.74 182.931C140.74 182.931 140.689 182.931 140.678 182.931L140.307 182.548C140.636 182.407 140.983 182.312 141.339 182.265C141.635 182.209 141.94 182.217 142.232 182.288C142.525 182.36 142.798 182.493 143.032 182.679C143.179 182.832 143.26 183.034 143.26 183.244C143.26 183.454 143.179 183.656 143.032 183.809C142.801 184.122 142.492 184.372 142.134 184.536Z" fill="#A6A6A6"/>
<path d="M144.199 186.645C143.804 186.84 143.374 186.958 142.933 186.991C142.492 187.024 142.049 186.971 141.628 186.837C141.236 186.715 141.515 186.322 141.897 186.453C142.446 186.618 143.036 186.593 143.569 186.382L143.827 186.261C144.111 186.128 144.356 185.927 144.539 185.676C144.62 185.565 144.653 185.427 144.632 185.293C144.632 185.293 144.632 185.293 144.632 185.242C144.632 185.192 144.632 185.182 144.632 185.182C144.578 185.109 144.507 185.05 144.426 185.01C144.269 184.931 144.096 184.889 143.92 184.889C143.707 184.889 143.496 184.916 143.29 184.97C143.181 184.982 143.074 185.006 142.97 185.04H142.908C142.874 185.034 142.839 185.034 142.805 185.04C142.805 185.04 142.753 185.04 142.743 185.04L142.361 184.657C142.691 184.522 143.039 184.43 143.393 184.384C143.689 184.327 143.993 184.333 144.286 184.403C144.578 184.473 144.851 184.604 145.086 184.788C145.235 184.94 145.318 185.143 145.318 185.353C145.318 185.564 145.235 185.766 145.086 185.918C144.867 186.238 144.559 186.49 144.199 186.645Z" fill="#A6A6A6"/>
<path d="M146.274 188.804C145.88 189.002 145.45 189.121 145.009 189.156C144.568 189.19 144.124 189.139 143.703 189.006C143.301 188.875 143.579 188.481 143.961 188.613C144.514 188.778 145.108 188.753 145.644 188.542C145.734 188.51 145.82 188.469 145.902 188.421C146.188 188.291 146.434 188.089 146.614 187.836C146.686 187.721 146.719 187.586 146.707 187.452C146.707 187.452 146.707 187.452 146.707 187.402V187.351C146.663 187.272 146.595 187.208 146.511 187.17C146.352 187.089 146.174 187.051 145.995 187.059C145.783 187.052 145.57 187.075 145.365 187.129C145.262 187.129 145.159 187.18 145.045 187.2H144.983H144.88C144.88 187.2 144.828 187.2 144.818 187.2L144.446 186.816C144.776 186.679 145.123 186.588 145.479 186.544C145.774 186.486 146.078 186.493 146.371 186.563C146.663 186.632 146.937 186.764 147.172 186.948C147.318 187.101 147.4 187.303 147.4 187.513C147.4 187.723 147.318 187.925 147.172 188.078C146.944 188.394 146.634 188.645 146.274 188.804Z" fill="#A6A6A6"/>
<path d="M148.349 190.873C147.546 191.262 146.621 191.331 145.768 191.065C145.376 190.934 145.654 190.55 146.036 190.671C146.585 190.835 147.174 190.814 147.709 190.611L147.967 190.49C148.253 190.356 148.499 190.151 148.679 189.894C148.757 189.786 148.794 189.653 148.782 189.521V189.46C148.734 189.383 148.661 189.323 148.576 189.289C148.42 189.207 148.246 189.165 148.07 189.168C147.857 189.16 147.645 189.183 147.44 189.238L147.12 189.319H147.058H146.955H146.893L146.511 188.936C146.841 188.801 147.189 188.709 147.543 188.663C147.839 188.606 148.143 188.612 148.436 188.682C148.728 188.752 149.001 188.883 149.236 189.067C149.386 189.221 149.469 189.425 149.469 189.637C149.469 189.849 149.386 190.053 149.236 190.207C149.001 190.497 148.696 190.726 148.349 190.873Z" fill="#A6A6A6"/>
<path d="M150.413 192.982C150.018 193.178 149.588 193.295 149.147 193.328C148.706 193.361 148.263 193.309 147.843 193.174C147.45 193.053 147.719 192.659 148.111 192.791C148.66 192.956 149.251 192.931 149.783 192.72L150.041 192.599C150.328 192.465 150.574 192.26 150.754 192.003C150.824 191.892 150.856 191.761 150.846 191.63V191.58V191.519C150.802 191.442 150.733 191.382 150.65 191.348C150.493 191.27 150.32 191.228 150.145 191.226C149.929 191.227 149.714 191.254 149.504 191.307C149.396 191.322 149.289 191.346 149.184 191.378H149.123C149.089 191.368 149.053 191.368 149.019 191.378C149.019 191.378 149.019 191.378 148.957 191.378L148.586 190.994C148.914 190.852 149.262 190.756 149.618 190.712C149.912 190.657 150.215 190.666 150.506 190.737C150.797 190.809 151.068 190.941 151.301 191.125C151.45 191.278 151.533 191.48 151.533 191.691C151.533 191.901 151.45 192.104 151.301 192.256C151.072 192.567 150.767 192.817 150.413 192.982Z" fill="#A6A6A6"/>
<path d="M152.488 195.092C151.687 195.486 150.76 195.555 149.907 195.283C149.515 195.162 149.794 194.769 150.176 194.9C150.725 195.065 151.315 195.04 151.848 194.829C151.938 194.797 152.024 194.756 152.106 194.708C152.392 194.578 152.638 194.376 152.818 194.123C152.897 194.011 152.934 193.875 152.922 193.739C152.923 193.722 152.923 193.706 152.922 193.689C152.922 193.689 152.922 193.628 152.922 193.628C152.868 193.556 152.797 193.497 152.715 193.457C152.559 193.378 152.385 193.336 152.209 193.336C151.997 193.336 151.785 193.363 151.58 193.416C151.471 193.432 151.364 193.455 151.26 193.487H151.198C151.163 193.481 151.129 193.481 151.094 193.487C151.094 193.487 151.043 193.487 151.032 193.487L150.651 193.104C150.981 192.969 151.328 192.877 151.683 192.831C151.978 192.774 152.283 192.78 152.575 192.85C152.867 192.919 153.141 193.051 153.376 193.235C153.525 193.387 153.608 193.589 153.608 193.8C153.608 194.01 153.525 194.213 153.376 194.365C153.155 194.683 152.847 194.935 152.488 195.092Z" fill="#A6A6A6"/>
<path d="M154.553 197.201C154.159 197.398 153.729 197.517 153.288 197.552C152.847 197.586 152.403 197.536 151.982 197.403C151.59 197.271 151.869 196.878 152.251 197.009C152.8 197.174 153.39 197.149 153.923 196.938C154.013 196.906 154.099 196.866 154.181 196.817C154.467 196.687 154.713 196.485 154.893 196.232C154.965 196.117 154.998 195.983 154.986 195.848V195.798C154.942 195.718 154.874 195.655 154.79 195.616C154.634 195.538 154.46 195.5 154.284 195.505C154.072 195.497 153.859 195.521 153.654 195.576C153.547 195.594 153.44 195.617 153.334 195.647H153.262H153.159H153.097L152.725 195.263C153.056 195.128 153.403 195.037 153.758 194.991C154.051 194.935 154.354 194.942 154.644 195.012C154.935 195.081 155.207 195.212 155.44 195.394C155.592 195.545 155.676 195.748 155.676 195.959C155.676 196.171 155.592 196.374 155.44 196.525C155.211 196.823 154.905 197.056 154.553 197.201Z" fill="#A6A6A6"/>
<path d="M156.627 199.32C155.825 199.709 154.899 199.778 154.046 199.512C153.654 199.38 153.933 198.997 154.315 199.118C154.867 199.282 155.459 199.26 155.997 199.058L156.245 198.936C156.537 198.805 156.786 198.6 156.968 198.341C157.038 198.229 157.071 198.099 157.061 197.968V197.907C157.012 197.83 156.94 197.77 156.854 197.736C156.699 197.654 156.525 197.612 156.348 197.614C156.136 197.606 155.924 197.63 155.719 197.685L155.399 197.766H155.337H155.234H155.172L154.79 197.382C155.12 197.248 155.467 197.156 155.822 197.11C156.117 197.052 156.422 197.059 156.714 197.129C157.007 197.198 157.28 197.33 157.515 197.514C157.661 197.667 157.743 197.869 157.743 198.079C157.743 198.289 157.661 198.491 157.515 198.644C157.28 198.936 156.975 199.168 156.627 199.32Z" fill="#A6A6A6"/>
<path d="M158.692 201.429C158.297 201.625 157.867 201.742 157.426 201.775C156.985 201.808 156.542 201.756 156.121 201.621C155.729 201.5 156.008 201.106 156.39 201.237C156.939 201.403 157.53 201.378 158.062 201.167L158.32 201.046C158.607 200.912 158.853 200.706 159.032 200.45C159.113 200.343 159.146 200.208 159.125 200.077V200.016C159.074 199.941 159.003 199.882 158.919 199.845C158.762 199.767 158.589 199.726 158.413 199.724C158.2 199.724 157.989 199.751 157.783 199.804C157.674 199.817 157.567 199.841 157.463 199.875H157.401H157.298H157.226L156.854 199.502C157.183 199.359 157.53 199.264 157.887 199.219C158.181 199.165 158.484 199.173 158.774 199.245C159.065 199.316 159.336 199.449 159.569 199.633C159.72 199.784 159.805 199.987 159.805 200.198C159.805 200.409 159.72 200.612 159.569 200.763C159.339 201.054 159.037 201.283 158.692 201.429Z" fill="#A6A6A6"/>
<path d="M84.9459 93.1252C70.2153 112.794 61.1416 139.456 61.8746 145.41C62.6797 152.01 71.0721 174.555 80.3523 184.768C82.7988 187.452 103.238 167.249 100.75 164.272C95.9397 158.539 86.6595 141.868 86.3911 138.144C86.1434 134.713 92.2751 112.915 94.2055 100.522C96.0635 88.5839 91.8312 83.9821 84.9459 93.1252Z" fill="#774442"/>
<path d="M100.161 163.575C100.161 163.575 110.484 168.621 117.111 172.183C120.797 174.202 126.805 178.178 128.828 180.862C131.852 184.899 141.855 203.558 137.282 206.021C133.153 208.261 126.619 191.146 126.619 191.146C126.619 191.146 134.753 207.847 129.251 209.644C123.749 211.44 119.011 191.156 119.011 191.156C119.011 191.156 126.98 208.503 121.013 209.472C116.502 210.209 111.155 192.064 111.155 192.064C111.155 192.064 117.896 207.02 113.292 207.969C108.203 208.978 102.195 192.579 102.195 192.579C90.0658 193.073 84.0889 188.461 80.2282 184.687C79.3095 183.759 100.161 163.575 100.161 163.575Z" fill="#774442"/>
<path d="M124.172 185.202C125.205 187.129 126.237 189.077 127.104 191.085C127.971 193.093 128.735 195.122 129.385 197.221C130.303 199.919 130.892 202.714 131.14 205.547C130.304 200.501 127.383 193.305 126.526 191.297C125.669 189.289 124.936 187.26 124.09 185.242C124.08 185.182 124.172 185.161 124.172 185.202Z" fill="#263238"/>
<path d="M116.699 188.068C117.907 190.591 119.197 193.043 120.281 195.616C121.365 198.19 122.17 200.662 123.068 203.316C123.14 203.518 123.006 203.488 122.934 203.316C121.901 200.733 120.787 198.422 119.744 195.838C118.701 193.255 117.762 190.651 116.647 188.128C116.616 188.058 116.678 188.037 116.699 188.068Z" fill="#263238"/>
<path d="M109.824 189.4C111.765 193.219 113.301 197.223 114.407 201.348C114.459 201.55 114.294 201.49 114.221 201.288C112.776 197.251 111.672 194.143 109.69 189.471C109.659 189.4 109.783 189.329 109.824 189.4Z" fill="#263238"/>
<path d="M70.7314 113.339L92.5125 118.486C92.5125 118.486 95.857 103.53 95.1654 94.3261C94.4738 85.1225 88.9718 86.6564 83.4284 93.8013C77.8851 100.946 70.7314 113.339 70.7314 113.339Z" fill="#263238"/>
</svg>
